<svg id="Layer_1" data-name="Layer 1" xmlns="http://www.w3.org/2000/svg" viewBox="0 0 425.133 431.399">
  <defs>
    <style>
      .cls-1 {
        fill: #caa757;
      }
    </style>
  </defs>
  <title>David-Michelle-Logo</title>
  <g>
    <path class="cls-1" d="M763.278,342.129c-1.592,1.178-1.724,3.692-.3,5.62a4.423,4.423,0,0,0,4.178,1.9c2.17,12.891,2.09,21.306-2.5,21.514-7.878.355-13.2-7.259-18.551-14.788a4.543,4.543,0,0,0,.4-.261c2.029-1.5,2.2-4.713.379-7.174s-4.942-3.237-6.971-1.736-2.2,4.715-.382,7.176c1.634,2.209,4.315,3.055,6.314,2.119,3.137,10.54,5.607,20.337,1.356,22.6-7.325,3.906-17.017-8.477-26.186-19.509,2.449-1.943,2.658-5.882.428-8.9-2.267-3.065-6.193-4.008-8.768-2.1s-2.816,5.932-.548,9c2.23,3.014,6.054,3.968,8.629,2.194,7.868,11.994,16.877,24.883,11,30.746-3.406,3.4-12.028-1.807-21.172-7.873,1.683-1.6,1.724-4.567.018-6.873-1.82-2.46-4.941-3.238-6.971-1.736s-2.2,4.716-.382,7.176,4.943,3.237,6.974,1.734c.045-.033.085-.072.128-.11,5.635,7.315,11.347,14.628,8.706,22.051-1.556,4.375-9.781,1.9-21.669-4.086a4.615,4.615,0,0,0-.847-3.914c-1.426-1.928-3.871-2.536-5.462-1.359s-1.723,3.692-.3,5.62,3.872,2.536,5.461,1.36a3.054,3.054,0,0,0,1.008-1.316l25.36,18.241,27.456-20.313,27.459-20.316L767.6,349.538a3.031,3.031,0,0,0,.839-.429c1.591-1.177,1.726-3.693.3-5.622S764.869,340.952,763.278,342.129Z" transform="translate(-432.647 -238.601)"/>
    <g>
      <path class="cls-1" d="M547.275,259.407c-.058,0-.11.005-.168.007a79.634,79.634,0,0,1,13.883-9.236,37.617,37.617,0,0,0-24.479,8.5c-3.472-2.212-7.933-3.069-13.762-2.064a2.844,2.844,0,0,0-.721-1.072,3.219,3.219,0,0,0-1.784-.837,3.073,3.073,0,0,0-2.2.44,10.734,10.734,0,0,0-1.121,1,2.818,2.818,0,0,0-1.662-1.777,2.628,2.628,0,0,0-3.519,2.138,13.272,13.272,0,0,1-.224,2.222,20.725,20.725,0,0,1-2.372,6.282,37.9,37.9,0,0,1-6.887,8.211,12.309,12.309,0,0,1-3.376,2.333c-.138.064-.432-.094-.238-.25a31.719,31.719,0,0,0,5.606-6.458,21.1,21.1,0,0,0,1.47-2.523c2.209-4.489,2.874-7.82,1.751-9.992a2.774,2.774,0,0,0-1.865-1.471,3.044,3.044,0,0,0-2.055.22,3.17,3.17,0,0,0-1.485,1.385,2.909,2.909,0,0,0,.452,3.227,3.3,3.3,0,0,1-2.126-1.044,3.661,3.661,0,0,1-.963-3.789A2.713,2.713,0,0,0,501,252.584a2.876,2.876,0,0,0-1.97-2.464,1.765,1.765,0,0,0,.751-1.376,2.117,2.117,0,0,0-1.58-1.823,4.375,4.375,0,0,0,3.527-4.084c0-2.343-2.188-4.242-4.877-4.237s-4.866,1.91-4.862,4.254a4.366,4.366,0,0,0,3.477,4.057,2.136,2.136,0,0,0-1.619,1.843,1.765,1.765,0,0,0,.755,1.373,2.874,2.874,0,0,0-1.96,2.471,2.712,2.712,0,0,0,1.575,2.274,3.653,3.653,0,0,1-.948,3.793,3.293,3.293,0,0,1-2.123,1.051,2.909,2.909,0,0,0,.441-3.228,3.165,3.165,0,0,0-1.488-1.38,3.05,3.05,0,0,0-2.058-.213,2.77,2.77,0,0,0-1.861,1.477c-1.118,2.176-.439,5.5,1.785,9.986a20.861,20.861,0,0,0,1.48,2.518,31.619,31.619,0,0,0,5.626,6.439c.194.156-.1.314-.237.251a12.371,12.371,0,0,1-3.386-2.321,37.9,37.9,0,0,1-6.914-8.188,20.691,20.691,0,0,1-2.391-6.274,13.074,13.074,0,0,1-.234-2.221,2.627,2.627,0,0,0-3.525-2.126,2.823,2.823,0,0,0-1.656,1.783,11,11,0,0,0-1.123-1,3.079,3.079,0,0,0-2.2-.433,3.216,3.216,0,0,0-1.781.843,2.856,2.856,0,0,0-.718,1.074c-5.832-.985-10.294-.113-13.758,2.111a37.61,37.61,0,0,0-24.5-8.422,79.617,79.617,0,0,1,13.911,9.189c-.056,0-.109-.006-.167-.006-3.348.006-6.059,1.9-6.055,4.239s2.721,4.22,6.07,4.214c2.775,0,5.1-1.307,5.824-3.081a56.826,56.826,0,0,1,10.948,17.066l-3.462.006a1.68,1.68,0,1,0,.006,3.35l36.848-.062h.62l36.848-.062a1.68,1.68,0,1,0-.006-3.35l-3.464.006a56.861,56.861,0,0,1,10.889-17.1c.726,1.772,3.062,3.066,5.835,3.061,3.348-.006,6.06-1.9,6.056-4.234S550.624,259.4,547.275,259.407ZM487.532,279.39l-3.076.005c-1.827-.075-5.362-.266-7.648-.5a5.615,5.615,0,0,0,3.44-5.246c0-.116-.012-.235-.024-.354.138-.01.276-.015.414-.015a7.44,7.44,0,0,1,4.01,1.286,8.018,8.018,0,0,1,3.481,4.337A3.28,3.28,0,0,0,487.532,279.39Zm5.07-1.741a32.815,32.815,0,0,0-6.855-5.276,23.044,23.044,0,0,0-2.681-1.385c-4.765-2.08-8.3-2.707-10.609-1.648A2.7,2.7,0,0,0,470.9,271.1a2.57,2.57,0,0,0,.234,1.936,3.175,3.175,0,0,0,1.47,1.4,3.408,3.408,0,0,0,3.427-.428,2.981,2.981,0,0,1-1.108,2,4.169,4.169,0,0,1-3.3,1.046,14.97,14.97,0,0,1-4.647-4.741c-3.443-5.451-4.036-10.257,4.147-13.077.031.047.052.1.086.148a10.691,10.691,0,0,0,1.062,1.055A2.9,2.9,0,0,0,470.377,262a2.492,2.492,0,0,0,2.27,3.315,15.926,15.926,0,0,1,2.359.209,23.823,23.823,0,0,1,6.671,2.233,39.513,39.513,0,0,1,8.717,6.484,11.741,11.741,0,0,1,2.477,3.18C492.936,277.555,492.771,277.832,492.6,277.649Zm3.491-22.125c-.015-.023-.034-.046-.051-.07l.092.01C496.121,255.484,496.106,255.5,496.093,255.523Zm1.47,0c-.013-.021-.03-.039-.043-.06l.092-.01C497.6,255.475,497.578,255.5,497.563,255.521Zm11.711,23.832-3.074.005a3.205,3.205,0,0,0-.6-.483,8.014,8.014,0,0,1,3.464-4.349,7.444,7.444,0,0,1,4.008-1.3q.2,0,.415.014c-.013.119-.02.238-.024.354a5.61,5.61,0,0,0,3.43,5.221C513.979,279.143,510.2,279.358,509.274,279.353Zm17.465-7.141a14.975,14.975,0,0,1-4.613,4.756,4.18,4.18,0,0,1-3.322-1.035,2.975,2.975,0,0,1-1.115-2,3.406,3.406,0,0,0,3.428.416,3.173,3.173,0,0,0,1.466-1.4,2.579,2.579,0,0,0,.228-1.937,2.706,2.706,0,0,0-1.569-1.751c-2.311-1.051-5.846-.412-10.6,1.684a23.122,23.122,0,0,0-2.677,1.394,32.92,32.92,0,0,0-6.836,5.3c-.168.184-.335-.092-.268-.223a11.674,11.674,0,0,1,2.467-3.188,39.475,39.475,0,0,1,8.693-6.514,23.825,23.825,0,0,1,6.665-2.255,15.849,15.849,0,0,1,2.358-.217,2.491,2.491,0,0,0,2.257-3.323,2.9,2.9,0,0,0-1.893-1.558,10.807,10.807,0,0,0,1.06-1.059c.033-.049.056-.1.086-.148C530.741,261.941,530.164,266.75,526.739,272.212Z" transform="translate(-432.647 -238.601)"/>
      <path class="cls-1" d="M535.516,302.871l-36.846.062h-.622L461.2,303c-1,0-1.811,1.413-1.808,3.149s.816,3.145,1.819,3.143l36.848-.062h.622l36.846-.062c1,0,1.812-1.41,1.809-3.149S536.52,302.87,535.516,302.871Z" transform="translate(-432.647 -238.601)"/>
      <path class="cls-1" d="M461.195,300.615l35.4-.06h.62l35.4-.06v-.628c-3.052-3.615-3.369-7.511-.02-11.782l-35.4.06h-.62l-35.4.06c3.066,4.525,2.69,8.377.02,11.782Zm57.342-8.95,5.467-.009a2.519,2.519,0,1,1,.008,5.035l-5.467.009a2.519,2.519,0,1,1-.008-5.035Zm-11.527,1.293,2.274-1.274,2.269,1.273,2.273,1.274-2.272,1.274-2.272,1.272-2.27-1.271-2.271-1.275Zm-14-1.25h0l1.138,0,2.425,0h.62l2.425,0,1.138,0h0a2.519,2.519,0,1,1,.008,5.035h0l-1.138,0-2.425,0h-.62l-2.425,0-1.138,0h0a2.519,2.519,0,1,1-.008-5.035Zm-10.787,1.3,2.266-1.281,2.276,1.266,2.278,1.266-2.27,1.282-2.266,1.279-2.275-1.265-2.275-1.266Zm-12.454-1.259,5.464-.009a2.519,2.519,0,1,1,.008,5.035l-5.464.009a2.519,2.519,0,1,1-.008-5.035Z" transform="translate(-432.647 -238.601)"/>
    </g>
    <path d="M823.049,566.144c-8.283,0-10.425-8.8-10.422-14.082.02-32.844,45.142-77.394,45.153-94.695.006-9.386-15.634-19.073-23.3-19.077-24.54-.015-105.27,83.514-113.867,92.6.322-23.167,84.122-109.041,84.135-131.33.005-8.5-12.563-22.3-25.142-22.3-46.934-.028-180.5,193.149-190.62,193.143a1.288,1.288,0,0,1-1.225-1.174c.018-29.324,91.184-122.234,91.215-172.383.015-24.631-26.663-43.416-55.5-43.434a114.849,114.849,0,0,0-21.35,2.17c-18.981-29.386-53.039-48.713-94.6-48.713h-58.18l-1.5,1.5V515.3l1.5,1.5h58.18c64.48,0,110.966-46.486,110.966-104.967A103.551,103.551,0,0,0,605.9,361.874a103.284,103.284,0,0,1,23.4-2.889c16.259.01,28.217,8.521,28.2,31.982-.028,45.747-92.113,134.841-92.135,170.915-.005,8.209,16.249,17.017,23,17.021,3.376,0,4.91-.582,7.98-4.394,28.549-34.585,147.67-190.823,185.1-190.8,2.149,0,3.373,1.764,3.371,4.4-.009,14.958-96.091,121.646-96.106,146.571,0,6.455,12.872,17.9,18.7,17.9,2.149,0,7.672-4.394,14.425-12.014,30.392-34.584,94.849-95.543,113.869-95.532q2.761,0,2.759,2.639c-.01,16.132-45.744,62.145-45.764,94.4-.011,18.769,16.24,27.282,29.125,27.29,1.841,0,3.988-.582,3.989-1.465C825.809,566.44,823.968,566.145,823.049,566.144ZM507.527,324.263c31.55,0,58.266,14.354,74.412,36.557-45.564,14.883-94.172,50.059-116.4,85.635V324.263Zm90.873,87.57c0,48.886-38.988,87.57-90.873,87.57H478.738c-1.823-3.539-2.6-8.135-2.592-13.53.023-38.278,54.272-95.983,110.439-117.944A86.546,86.546,0,0,1,598.4,411.833Z" transform="translate(-432.647 -238.601)"/>
    <g>
      <path class="cls-1" d="M482.57,640.912c0,16.1-8.022,29.088-22.061,29.088-13.938,0-21.96-12.99-21.96-29.088s8.022-29.088,21.96-29.088C474.548,611.824,482.57,624.814,482.57,640.912Zm-37.8,0c0,13.628,6.217,24.465,15.743,24.465,9.626,0,15.844-10.837,15.844-24.465s-6.217-24.466-15.844-24.466C450.983,616.446,444.766,627.285,444.766,640.912Z" transform="translate(-432.647 -238.601)"/>
      <path class="cls-1" d="M531.3,624.973c0,5.579-4.512,9.962-11.331,12.99,8.323,2.948,15.342,8.767,15.342,15.7,0,9.564-9.025,16.338-20.556,16.338-11.432,0-20.457-6.773-20.457-16.338,0-6.932,7.019-12.75,15.342-15.7-6.819-3.028-11.331-7.412-11.331-12.99,0-7.411,7.119-13.149,16.445-13.149C524.178,611.824,531.3,617.562,531.3,624.973Zm-30.885,28.689c0,7.173,6.317,11.715,14.339,11.715,8.122,0,14.339-4.463,14.339-11.715,0-5.977-6.718-10.837-14.339-13.229C507.232,642.825,500.413,647.685,500.413,653.662Zm24.668-28.689c0-5.1-4.512-8.527-10.328-8.527-5.716,0-10.228,3.427-10.228,8.527,0,4.383,4.212,8.288,10.228,10.44C520.869,633.261,525.081,629.356,525.081,624.973Z" transform="translate(-432.647 -238.601)"/>
      <path class="cls-1" d="M554.958,663.305l.5.4v4.7l-.5.4h-5.917l-.5-.4v-4.7l.5-.4Z" transform="translate(-432.647 -238.601)"/>
      <path class="cls-1" d="M581.027,613.019v55.386l-.5.4h-4.914l-.5-.4V616.685l.5-.8,4.914-3.267Z" transform="translate(-432.647 -238.601)"/>
      <path class="cls-1" d="M636.678,613.019l.5.4-3.409,4.224H608.5l-2.306,16.895c16.345-2.47,29.983,5.579,29.983,17.533,0,10.36-10.529,17.931-23.565,17.931a26.954,26.954,0,0,1-19.554-7.969l3.409-3.108h1a21.383,21.383,0,0,0,15.141,6.455c9.827,0,17.549-5.737,17.549-13.308,0-8.209-9.025-13.469-19.454-13.469a37.2,37.2,0,0,0-10.73,1.435l-.5-.4,3.109-26.219.5-.4Z" transform="translate(-432.647 -238.601)"/>
      <path class="cls-1" d="M652.217,663.305l.5.4v4.7l-.5.4H646.3l-.5-.4v-4.7l.5-.4Z" transform="translate(-432.647 -238.601)"/>
      <path class="cls-1" d="M665.45,618.6c4.512-3.746,10.028-6.774,16.946-6.774,10.93,0,18.551,6.375,18.551,15.142,0,5.9-4.312,11.715-9.025,17.931l-14.941,19.285h25.971l.5.4v3.825l-.5.4h-35.5l-.5-.4,19.554-25.5c5.014-6.375,8.223-11.555,8.223-15.938,0-6.455-4.914-10.52-12.334-10.52-6.919,0-12.735,4.144-16.445,8.368l-.5-.4Z" transform="translate(-432.647 -238.601)"/>
      <path class="cls-1" d="M760.707,640.912c0,16.1-8.022,29.088-22.061,29.088-13.938,0-21.96-12.99-21.96-29.088s8.022-29.088,21.96-29.088C752.685,611.824,760.707,624.814,760.707,640.912Zm-37.8,0c0,13.628,6.217,24.465,15.743,24.465,9.626,0,15.844-10.837,15.844-24.465s-6.217-24.466-15.844-24.466C729.12,616.446,722.9,627.285,722.9,640.912Z" transform="translate(-432.647 -238.601)"/>
      <path class="cls-1" d="M781.759,613.019v55.386l-.5.4h-4.913l-.5-.4V616.685l.5-.8,4.913-3.267Z" transform="translate(-432.647 -238.601)"/>
      <path class="cls-1" d="M833.4,624.973c0,5.579-4.512,9.962-11.331,12.99,8.323,2.948,15.342,8.767,15.342,15.7,0,9.564-9.025,16.338-20.556,16.338-11.432,0-20.457-6.773-20.457-16.338,0-6.932,7.019-12.75,15.342-15.7-6.819-3.028-11.331-7.412-11.331-12.99,0-7.411,7.119-13.149,16.445-13.149C826.279,611.824,833.4,617.562,833.4,624.973Zm-30.885,28.689c0,7.173,6.317,11.715,14.339,11.715,8.122,0,14.339-4.463,14.339-11.715,0-5.977-6.719-10.837-14.339-13.229C809.333,642.825,802.514,647.685,802.514,653.662Zm24.668-28.689c0-5.1-4.512-8.527-10.328-8.527-5.716,0-10.228,3.427-10.228,8.527,0,4.383,4.212,8.288,10.228,10.44C822.97,633.261,827.182,629.356,827.182,624.973Z" transform="translate(-432.647 -238.601)"/>
    </g>
  </g>
</svg>
