<svg xmlns="http://www.w3.org/2000/svg" xmlns:xlink="http://www.w3.org/1999/xlink" viewBox="0 0 1626 995.141">
  <defs>
    <style>
      .cls-1 {
        isolation: isolate;
      }

      .cls-2 {
        fill: #e5e5e5;
        mix-blend-mode: multiply;
      }

      .cls-3 {
        fill: #024bb5;
      }

      .cls-4 {
        stroke: #b7bdf9;
        fill: url(#linear-gradient);
      }

      .cls-11, .cls-4, .cls-9 {
        stroke-miterlimit: 10;
      }

      .cls-11, .cls-4 {
        stroke-width: 2px;
      }

      .cls-5 {
        fill: #f3faff;
      }

      .cls-6 {
        fill: #bbbdbf;
      }

      .cls-7 {
        fill: #fff;
      }

      .cls-8 {
        fill: #eab50a;
      }

      .cls-9 {
        stroke: #ffd473;
        stroke-width: 2.105px;
        fill: url(#linear-gradient-2);
      }

      .cls-10 {
        fill: #02c93a;
      }

      .cls-11 {
        stroke: #91f2a8;
        fill: url(#linear-gradient-3);
      }

      .cls-12 {
        fill: #f0fff0;
      }

      .cls-13 {
        fill: #fffbf3;
      }
    </style>
    <linearGradient id="linear-gradient" x1="318.83" y1="752.982" x2="465.769" y2="1387.676" gradientUnits="userSpaceOnUse">
      <stop offset="0" stop-color="#fff"/>
      <stop offset="1" stop-color="#2e75bd"/>
    </linearGradient>
    <linearGradient id="linear-gradient-2" x1="1679.218" y1="783.933" x2="1887.243" y2="1235.39" gradientUnits="userSpaceOnUse">
      <stop offset="0" stop-color="#fff"/>
      <stop offset="1" stop-color="#fff1b7"/>
    </linearGradient>
    <linearGradient id="linear-gradient-3" x1="881.267" y1="739.716" x2="964.941" y2="1047.879" gradientUnits="userSpaceOnUse">
      <stop offset="0" stop-color="#fff"/>
      <stop offset="1" stop-color="#7fffab"/>
    </linearGradient>
  </defs>
  <title>Price Packages (B)</title>
  <g class="cls-1">
    <g id="Layer_1" data-name="Layer 1">
      <path class="cls-2" d="M14.5,83.114H500.828a7.25,7.25,0,0,1,7.25,7.25v804.1a7.25,7.25,0,0,1-7.25,7.25H14.5a7.25,7.25,0,0,1-7.25-7.25V90.36A7.246,7.246,0,0,1,14.5,83.114Z"/>
      <path class="cls-3" d="M14.5,72.234H500.828a14.5,14.5,0,0,1,14.5,14.5v804.1a14.5,14.5,0,0,1-14.5,14.5H14.5A14.5,14.5,0,0,1,0,890.838V86.737a14.5,14.5,0,0,1,14.5-14.5Z"/>
      <rect class="cls-4" x="7.254" y="79.487" width="500.824" height="818.598" rx="7.25" ry="7.25"/>
      <polygon class="cls-5" points="7 79.141 7 372.346 257.501 427.141 508 372.346 508 79.141 7 79.141"/>
      <rect class="cls-6" x="61.627" y="228.438" width="392.081" height="1.81"/>
      <circle class="cls-3" cx="143.452" cy="566.689" r="12.518"/>
      <path class="cls-7" d="M377.712,640.074a.251.251,0,0,1-.074.181L370.8,647.09a.219.219,0,0,1-.173.074h-.021a.235.235,0,0,1-.173-.074l-3.167-3.156a.29.29,0,0,1-.074-.184.283.283,0,0,1,.074-.184l1.356-1.356a.247.247,0,0,1,.368,0l1.626,1.64,5.291-5.306a.3.3,0,0,1,.184-.078.3.3,0,0,1,.188.078l1.356,1.357a.235.235,0,0,1,.074.173Z" transform="translate(-229 -75.859)"/>
      <circle class="cls-3" cx="143.452" cy="514.13" r="12.517"/>
      <path class="cls-7" d="M377.712,587.514a.251.251,0,0,1-.074.181L370.8,594.53a.219.219,0,0,1-.173.074h-.021a.235.235,0,0,1-.173-.074l-3.167-3.156a.29.29,0,0,1-.074-.184.283.283,0,0,1,.074-.184l1.356-1.356a.242.242,0,0,1,.368,0l1.626,1.64,5.291-5.309a.3.3,0,0,1,.184-.078.3.3,0,0,1,.188.078l1.356,1.356a.244.244,0,0,1,.074.177Z" transform="translate(-229 -75.859)"/>
      <circle class="cls-3" cx="143.452" cy="461.57" r="12.517"/>
      <path class="cls-7" d="M377.712,534.954a.252.252,0,0,1-.074.181L370.8,541.97a.219.219,0,0,1-.173.074h-.021a.235.235,0,0,1-.173-.074l-3.167-3.159a.289.289,0,0,1-.074-.184.281.281,0,0,1,.074-.181l1.356-1.356a.247.247,0,0,1,.368,0l1.626,1.636,5.291-5.3a.3.3,0,0,1,.184-.078.3.3,0,0,1,.188.078l1.356,1.353a.244.244,0,0,1,.074.177Z" transform="translate(-229 -75.859)"/>
      <path class="cls-2" d="M1847.746,970.325a7.248,7.248,0,0,1-7.254,7.246H1354.172a7.252,7.252,0,0,1-7.254-7.246v-804.1a7.255,7.255,0,0,1,7.254-7.25h486.321a7.251,7.251,0,0,1,7.254,7.25Z" transform="translate(-229 -75.859)"/>
      <path class="cls-8" d="M1354.172,1071c-8,0-14.507-7.207-14.507-16.063V164.16c0-8.859,6.506-16.067,14.507-16.067h486.321c8,0,14.507,7.207,14.507,16.067v890.777c0,8.855-6.506,16.063-14.507,16.063Z" transform="translate(-229 -75.859)"/>
      <path class="cls-9" d="M1847.746,1051.614c0,4.434-3.244,8.027-7.254,8.027H1354.172c-4,0-7.254-3.594-7.254-8.027V160.836c0-4.434,3.251-8.031,7.254-8.031h486.321c4.009,0,7.254,3.6,7.254,8.031Z" transform="translate(-229 -75.859)"/>
      <circle class="cls-8" cx="1224.121" cy="614.248" r="12.517"/>
      <path class="cls-7" d="M1458.384,687.634a.255.255,0,0,1-.078.181l-6.836,6.836a.217.217,0,0,1-.177.074h-.021a.233.233,0,0,1-.17-.074l-3.167-3.159a.316.316,0,0,1-.078-.184.307.307,0,0,1,.078-.184l1.353-1.353a.255.255,0,0,1,.375,0l1.622,1.636,5.291-5.305a.257.257,0,0,1,.368,0l1.36,1.356a.247.247,0,0,1,.078.177Z" transform="translate(-229 -75.859)"/>
      <circle class="cls-8" cx="1224.121" cy="561.689" r="12.518"/>
      <path class="cls-7" d="M1458.384,635.074a.254.254,0,0,1-.078.181l-6.836,6.836a.217.217,0,0,1-.177.074h-.021a.233.233,0,0,1-.17-.074l-3.167-3.156a.316.316,0,0,1-.078-.184.307.307,0,0,1,.078-.184l1.353-1.356a.255.255,0,0,1,.375,0l1.622,1.64,5.291-5.306a.257.257,0,0,1,.368,0l1.36,1.357a.239.239,0,0,1,.078.173Z" transform="translate(-229 -75.859)"/>
      <circle class="cls-8" cx="1224.121" cy="509.13" r="12.517"/>
      <path class="cls-7" d="M1458.384,582.514a.254.254,0,0,1-.078.181l-6.836,6.836a.217.217,0,0,1-.177.074h-.021a.233.233,0,0,1-.17-.074l-3.167-3.156a.316.316,0,0,1-.078-.184.307.307,0,0,1,.078-.184l1.353-1.356a.25.25,0,0,1,.375,0l1.622,1.64,5.291-5.309a.257.257,0,0,1,.368,0l1.36,1.356a.247.247,0,0,1,.078.177Z" transform="translate(-229 -75.859)"/>
      <circle class="cls-8" cx="1224.121" cy="456.57" r="12.517"/>
      <path class="cls-7" d="M1458.384,529.954a.256.256,0,0,1-.078.181l-6.836,6.835a.217.217,0,0,1-.177.074h-.021a.233.233,0,0,1-.17-.074l-3.167-3.159a.315.315,0,0,1-.078-.184.307.307,0,0,1,.078-.181l1.353-1.356a.255.255,0,0,1,.375,0l1.622,1.636,5.291-5.3a.257.257,0,0,1,.368,0l1.36,1.353a.247.247,0,0,1,.078.177Z" transform="translate(-229 -75.859)"/>
      <path class="cls-2" d="M569.97,83.114H1056.3a7.246,7.246,0,0,1,7.246,7.246v804.1a7.25,7.25,0,0,1-7.25,7.25H569.974a7.25,7.25,0,0,1-7.25-7.25V90.36A7.246,7.246,0,0,1,569.97,83.114Z"/>
      <path class="cls-10" d="M569.97,72.234H1056.3a14.5,14.5,0,0,1,14.5,14.5v804.1a14.5,14.5,0,0,1-14.5,14.5H569.97a14.5,14.5,0,0,1-14.5-14.5V86.733A14.5,14.5,0,0,1,569.97,72.234Z"/>
      <path class="cls-11" d="M569.97,79.487H1056.3a7.246,7.246,0,0,1,7.246,7.246v804.1a7.25,7.25,0,0,1-7.25,7.25H569.974a7.25,7.25,0,0,1-7.25-7.25V86.733a7.246,7.246,0,0,1,7.246-7.246Z"/>
      <circle class="cls-10" cx="677.919" cy="617.248" r="12.517"/>
      <path class="cls-7" d="M912.186,690.634a.255.255,0,0,1-.078.181l-6.836,6.836a.214.214,0,0,1-.173.074h-.021a.24.24,0,0,1-.173-.074l-3.17-3.159a.3.3,0,0,1-.071-.184.3.3,0,0,1,.071-.184l1.357-1.353a.251.251,0,0,1,.372,0l1.626,1.636,5.3-5.305a.257.257,0,0,1,.368,0l1.356,1.356a.247.247,0,0,1,.078.177Z" transform="translate(-229 -75.859)"/>
      <circle class="cls-10" cx="677.919" cy="564.689" r="12.517"/>
      <path class="cls-7" d="M912.186,638.074a.254.254,0,0,1-.078.181l-6.836,6.836a.214.214,0,0,1-.173.074h-.021a.24.24,0,0,1-.173-.074l-3.17-3.156a.3.3,0,0,1-.071-.184.3.3,0,0,1,.071-.184l1.357-1.356a.251.251,0,0,1,.372,0l1.626,1.64,5.3-5.306a.257.257,0,0,1,.368,0l1.356,1.357a.239.239,0,0,1,.078.173Z" transform="translate(-229 -75.859)"/>
      <circle class="cls-10" cx="677.919" cy="512.13" r="12.517"/>
      <path class="cls-7" d="M912.186,585.514a.254.254,0,0,1-.078.181l-6.836,6.836a.214.214,0,0,1-.173.074h-.021a.24.24,0,0,1-.173-.074l-3.17-3.156a.3.3,0,0,1-.071-.184.3.3,0,0,1,.071-.184l1.357-1.356a.246.246,0,0,1,.372,0l1.626,1.64,5.3-5.309a.257.257,0,0,1,.368,0l1.356,1.356a.247.247,0,0,1,.078.177Z" transform="translate(-229 -75.859)"/>
      <circle class="cls-10" cx="677.919" cy="459.57" r="12.517"/>
      <path class="cls-7" d="M912.186,532.954a.256.256,0,0,1-.078.181l-6.836,6.835a.214.214,0,0,1-.173.074h-.021a.24.24,0,0,1-.173-.074l-3.17-3.159a.3.3,0,0,1-.071-.184.3.3,0,0,1,.071-.181l1.357-1.356a.251.251,0,0,1,.372,0l1.626,1.636,5.3-5.3a.257.257,0,0,1,.368,0l1.356,1.353a.247.247,0,0,1,.078.177Z" transform="translate(-229 -75.859)"/>
      <g>
        <path class="cls-3" d="M404.861,212.144A62.271,62.271,0,0,1,415.7,211.3c5.508,0,8.9.666,11.682,2.6a8.6,8.6,0,0,1,4.237,7.626c0,3.753-2.36,7.2-6.779,8.837v.121c4.3,1.09,8.232,4.479,8.232,10.108a10.585,10.585,0,0,1-3.935,8.413c-2.905,2.542-7.687,3.813-15.132,3.813a72.136,72.136,0,0,1-9.14-.545Zm7.384,16.1h3.813c5.145,0,8.05-2.421,8.05-5.871,0-3.813-2.905-5.569-7.626-5.569a20.229,20.229,0,0,0-4.237.3Zm0,18.763a32.878,32.878,0,0,0,3.935.182c4.782,0,9.019-1.816,9.019-6.84,0-4.721-4.116-6.658-9.261-6.658h-3.692Z" transform="translate(-229 -75.859)"/>
        <path class="cls-3" d="M447.712,240.834,444.2,252.395h-7.687l13.074-40.8h9.5l13.255,40.8h-7.99l-3.692-11.561Zm11.682-5.629-3.208-10.048c-.787-2.482-1.453-5.266-2.058-7.626h-.121c-.6,2.36-1.21,5.205-1.937,7.626L448.922,235.2Z" transform="translate(-229 -75.859)"/>
        <path class="cls-3" d="M477.85,244.284a20.613,20.613,0,0,0,9.866,2.6c4.782,0,7.445-2.239,7.445-5.569,0-3.087-2.058-4.9-7.263-6.779-6.719-2.421-11.016-5.992-11.016-11.863,0-6.658,5.569-11.742,14.406-11.742a21.545,21.545,0,0,1,9.806,2.058l-1.816,5.992a17.271,17.271,0,0,0-8.111-1.937c-4.721,0-6.779,2.542-6.779,4.9,0,3.148,2.361,4.6,7.808,6.719,7.082,2.663,10.532,6.235,10.532,12.106,0,6.537-4.964,12.227-15.5,12.227a24.235,24.235,0,0,1-11.016-2.542Z" transform="translate(-229 -75.859)"/>
        <path class="cls-3" d="M516.888,211.6v40.8h-7.445V211.6Z" transform="translate(-229 -75.859)"/>
        <path class="cls-3" d="M554.655,251.184c-1.755.908-5.629,1.816-10.532,1.816-12.953,0-20.821-8.111-20.821-20.519,0-13.437,9.321-21.548,21.79-21.548a23.434,23.434,0,0,1,9.926,1.816l-1.634,5.932a19.818,19.818,0,0,0-7.99-1.574c-8.292,0-14.285,5.205-14.285,15.011,0,8.958,5.266,14.708,14.224,14.708a20.839,20.839,0,0,0,8.11-1.513Z" transform="translate(-229 -75.859)"/>
      </g>
      <g>
        <path class="cls-3" d="M414.518,454.637v-7.783c-5.055-.161-10.11-1.605-13-3.531l2.167-7.543a25.3,25.3,0,0,0,12.517,3.531c5.055,0,8.506-2.488,8.506-6.339,0-3.611-2.809-5.938-8.746-8.1-8.426-3.049-13.882-6.9-13.882-14.363,0-6.9,4.815-12.2,12.919-13.641V389h6.579v7.462a25.656,25.656,0,0,1,11.073,2.648l-2.167,7.382a23.85,23.85,0,0,0-10.912-2.728c-5.617,0-7.623,2.889-7.623,5.617,0,3.29,2.889,5.135,9.709,7.864,8.987,3.37,13,7.7,13,14.845,0,6.82-4.734,12.838-13.561,14.283v8.265Z" transform="translate(-229 -75.859)"/>
        <path class="cls-3" d="M474.935,402.561a39.648,39.648,0,0,0-5.055.241c-10.912,1.284-16.208,8.024-17.492,15.246h.241a15.011,15.011,0,0,1,11.715-5.055c8.987,0,15.968,6.42,15.968,17.011,0,9.95-7.3,18.616-18.375,18.616-12.678,0-19.659-9.629-19.659-22.467,0-10.03,3.611-18.214,9.067-23.43,4.814-4.493,11.073-7.061,18.535-7.7a27.993,27.993,0,0,1,4.975-.161Zm-4.654,28c0-6.018-3.29-10.351-9.067-10.351a9.586,9.586,0,0,0-8.506,5.376,6.74,6.74,0,0,0-.642,3.129c.161,6.9,3.45,12.517,9.789,12.517C466.991,441.237,470.281,436.824,470.281,430.566Z" transform="translate(-229 -75.859)"/>
        <path class="cls-3" d="M523,421.338c0,16.77-6.579,27.282-19.017,27.282-12.036,0-18.455-10.913-18.535-26.8,0-16.209,6.9-27.122,19.1-27.122C517.138,394.7,523,405.932,523,421.338Zm-27.6.482c-.08,12.678,3.45,19.257,8.907,19.257,5.777,0,8.827-7.061,8.827-19.578,0-12.116-2.889-19.258-8.827-19.258C499,402.24,495.313,408.74,495.392,421.819Z" transform="translate(-229 -75.859)"/>
        <path class="cls-3" d="M566,421.338c0,16.77-6.579,27.282-19.017,27.282-12.036,0-18.455-10.913-18.535-26.8,0-16.209,6.9-27.122,19.1-27.122C560.143,394.7,566,405.932,566,421.338Zm-27.6.482c-.08,12.678,3.45,19.257,8.907,19.257,5.777,0,8.827-7.061,8.827-19.578,0-12.116-2.889-19.258-8.827-19.258C542.008,402.24,538.317,408.74,538.4,421.819Z" transform="translate(-229 -75.859)"/>
      </g>
      <circle class="cls-10" cx="677.919" cy="670.524" r="12.517"/>
      <path class="cls-7" d="M912.186,743.909a.255.255,0,0,1-.078.181l-6.836,6.836a.214.214,0,0,1-.173.074h-.021a.24.24,0,0,1-.173-.074l-3.17-3.159a.3.3,0,0,1-.071-.184.3.3,0,0,1,.071-.184l1.357-1.353a.251.251,0,0,1,.372,0l1.626,1.636,5.3-5.305a.257.257,0,0,1,.368,0l1.356,1.356a.247.247,0,0,1,.078.177Z" transform="translate(-229 -75.859)"/>
      <circle class="cls-8" cx="1224.121" cy="667.524" r="12.517"/>
      <path class="cls-7" d="M1458.384,740.909a.255.255,0,0,1-.078.181l-6.836,6.836a.217.217,0,0,1-.177.074h-.021a.233.233,0,0,1-.17-.074l-3.167-3.159a.316.316,0,0,1-.078-.184.307.307,0,0,1,.078-.184l1.353-1.353a.255.255,0,0,1,.375,0l1.622,1.636,5.291-5.305a.257.257,0,0,1,.368,0l1.36,1.356a.247.247,0,0,1,.078.177Z" transform="translate(-229 -75.859)"/>
      <circle class="cls-8" cx="1224.121" cy="721.524" r="12.517"/>
      <path class="cls-7" d="M1458.384,794.909a.255.255,0,0,1-.078.181l-6.836,6.836a.217.217,0,0,1-.177.074h-.021a.233.233,0,0,1-.17-.074l-3.167-3.159a.316.316,0,0,1-.078-.184.307.307,0,0,1,.078-.184l1.353-1.353a.255.255,0,0,1,.375,0l1.622,1.636,5.291-5.305a.257.257,0,0,1,.368,0l1.36,1.356a.247.247,0,0,1,.078.177Z" transform="translate(-229 -75.859)"/>
      <circle class="cls-8" cx="1224.121" cy="775.524" r="12.517"/>
      <path class="cls-7" d="M1458.384,848.909a.255.255,0,0,1-.078.181l-6.836,6.836a.217.217,0,0,1-.177.074h-.021a.233.233,0,0,1-.17-.074l-3.167-3.159a.316.316,0,0,1-.078-.184.307.307,0,0,1,.078-.184l1.353-1.353a.255.255,0,0,1,.375,0l1.622,1.636,5.291-5.305a.257.257,0,0,1,.368,0l1.36,1.356a.247.247,0,0,1,.078.177Z" transform="translate(-229 -75.859)"/>
      <g>
        <path d="M401.076,525.513h2.88V544.7h10.187v2.411H401.076Z" transform="translate(-229 -75.859)"/>
        <path d="M415.584,539.335a8.478,8.478,0,1,1,8.5,8.351A8.255,8.255,0,0,1,415.584,539.335Zm14.218,0c0-3.384-2.2-6.155-5.723-6.155-3.564,0-5.759,2.771-5.759,6.155,0,3.419,2.231,6.155,5.759,6.155S429.8,542.755,429.8,539.335Z" transform="translate(-229 -75.859)"/>
        <path d="M436.392,552.654v-2.448a11.373,11.373,0,0,0,6.731,2.016c2.7,0,5.184-1.62,5.184-6.191v-1.368a7.249,7.249,0,0,1-5.867,2.881c-4.284,0-7.415-3.672-7.415-8.208s3.131-8.207,7.415-8.207a7.267,7.267,0,0,1,6.119,3.24l.108-2.808h2.375v14.182c0,7.2-4.5,8.711-8.243,8.711A13.309,13.309,0,0,1,436.392,552.654Zm12.094-13.319c0-3.744-2.412-6.011-5.363-6.011s-5.363,2.268-5.363,6.011,2.412,6.011,5.363,6.011S448.486,543.079,448.486,539.335Z" transform="translate(-229 -75.859)"/>
        <path d="M454.427,539.335a8.478,8.478,0,1,1,8.5,8.351A8.255,8.255,0,0,1,454.427,539.335Zm14.218,0c0-3.384-2.2-6.155-5.723-6.155-3.564,0-5.759,2.771-5.759,6.155,0,3.419,2.231,6.155,5.759,6.155S468.646,542.755,468.646,539.335Z" transform="translate(-229 -75.859)"/>
        <path d="M401.076,579.514H408.2c4.391,0,6.263,2.555,6.263,5.65a5.712,5.712,0,0,1-2.268,4.248,5.871,5.871,0,0,1,3.42,5.363c0,3.491-2.124,6.335-7.055,6.335h-7.487Zm7.127,8.926c2.7,0,3.527-1.619,3.527-3.275s-.828-3.239-3.527-3.239h-4.248v6.515Zm.36,10.26c3.239,0,4.211-1.944,4.211-3.924s-.972-3.924-4.211-3.924h-4.607V598.7Z" transform="translate(-229 -75.859)"/>
        <path d="M418.824,594.811v-9.25h2.735v9c0,3.492,1.368,4.645,3.636,4.645,2.232,0,5.111-1.944,5.111-4.464v-9.179h2.736v15.55h-2.376l-.18-2.987a7.313,7.313,0,0,1-6.047,3.42C420.3,601.543,418.824,598.662,418.824,594.811Z" transform="translate(-229 -75.859)"/>
        <path d="M436.428,599.959l.54-2.16a10.562,10.562,0,0,0,5.291,1.619c1.944,0,3.456-.684,3.456-2.411,0-1.368-1.4-2.124-3.959-2.771-3.312-.828-4.823-2.592-4.823-4.607,0-2.448,1.872-4.536,5.688-4.536a10.78,10.78,0,0,1,4.823,1.3l-.54,2.088a8.209,8.209,0,0,0-4.283-1.26c-2.124,0-3.168.791-3.168,2.051,0,1.332,1.3,2.124,3.348,2.628,3.563.864,5.436,2.483,5.436,4.536,0,3.275-2.484,5.146-6.047,5.146A11.253,11.253,0,0,1,436.428,599.959Z" transform="translate(-229 -75.859)"/>
        <path d="M451.655,579.514h2.735V582.5h-2.735Zm0,6.047h2.735v15.55h-2.735Z" transform="translate(-229 -75.859)"/>
        <path d="M458.855,585.561h2.375l.18,2.987a7.26,7.26,0,0,1,6.047-3.419c4.14,0,5.615,2.879,5.615,6.73v9.251h-2.735v-9c0-3.491-1.368-4.643-3.636-4.643-2.231,0-5.111,1.943-5.111,4.463v9.179h-2.735Z" transform="translate(-229 -75.859)"/>
        <path d="M476.638,593.228c0-5,3.708-8.1,7.523-8.1,3.887,0,6.623,2.52,6.623,6.047a9.812,9.812,0,0,1-.216,1.764h-11.23c-.216,2.735,1.08,6.371,6.047,6.371a8.081,8.081,0,0,0,5.111-2.016v2.412a9.977,9.977,0,0,1-6.047,1.836C479.878,601.543,476.638,598.051,476.638,593.228Zm11.519-2.2c.324-2.088-1.332-3.743-3.887-3.743a4.468,4.468,0,0,0-4.68,3.743Z" transform="translate(-229 -75.859)"/>
        <path d="M493.486,599.959l.54-2.16a10.562,10.562,0,0,0,5.291,1.619c1.944,0,3.456-.684,3.456-2.411,0-1.368-1.4-2.124-3.959-2.771-3.312-.828-4.823-2.592-4.823-4.607,0-2.448,1.872-4.536,5.688-4.536a10.78,10.78,0,0,1,4.823,1.3l-.54,2.088a8.209,8.209,0,0,0-4.283-1.26c-2.124,0-3.168.791-3.168,2.051,0,1.332,1.3,2.124,3.348,2.628,3.563.864,5.436,2.483,5.436,4.536,0,3.275-2.484,5.146-6.047,5.146A11.253,11.253,0,0,1,493.486,599.959Z" transform="translate(-229 -75.859)"/>
        <path d="M507.634,599.959l.54-2.16a10.562,10.562,0,0,0,5.291,1.619c1.944,0,3.456-.684,3.456-2.411,0-1.368-1.4-2.124-3.959-2.771-3.312-.828-4.823-2.592-4.823-4.607,0-2.448,1.872-4.536,5.688-4.536a10.78,10.78,0,0,1,4.823,1.3l-.54,2.088a8.209,8.209,0,0,0-4.283-1.26c-2.124,0-3.168.791-3.168,2.051,0,1.332,1.3,2.124,3.348,2.628,3.563.864,5.436,2.483,5.436,4.536,0,3.275-2.484,5.146-6.047,5.146A11.253,11.253,0,0,1,507.634,599.959Z" transform="translate(-229 -75.859)"/>
        <path d="M528.8,590.312c0-6.983,5.255-11.267,11.483-11.267a13.181,13.181,0,0,1,7.487,2.268V584.3a10.775,10.775,0,0,0-7.487-2.844c-4.967,0-8.5,3.455-8.5,8.854,0,5.363,3.528,8.854,8.5,8.854a10.775,10.775,0,0,0,7.487-2.844v2.988a13.181,13.181,0,0,1-7.487,2.268C534.056,601.578,528.8,597.295,528.8,590.312Z" transform="translate(-229 -75.859)"/>
        <path d="M550.509,593.336c0-4.536,3.131-8.207,7.415-8.207a7.268,7.268,0,0,1,6.119,3.239l.108-2.808h2.375v15.55h-2.375l-.108-2.808a7.269,7.269,0,0,1-6.119,3.24C553.64,601.543,550.509,597.871,550.509,593.336Zm13.462,0c0-3.744-2.412-6.012-5.363-6.012s-5.363,2.268-5.363,6.012,2.412,6.011,5.363,6.011S563.971,597.079,563.971,593.336Z" transform="translate(-229 -75.859)"/>
        <path d="M570.992,585.561h2.375l.18,2.987a6.991,6.991,0,0,1,6.047-3.419v2.951c-2.952-.54-5.867,1.152-5.867,3.779v9.251h-2.735Z" transform="translate(-229 -75.859)"/>
        <path d="M581.432,593.336c0-4.536,3.131-8.207,7.415-8.207a7.247,7.247,0,0,1,5.867,2.879v-8.494h2.735v21.6h-2.375l-.108-2.808a7.269,7.269,0,0,1-6.119,3.24C584.563,601.543,581.432,597.871,581.432,593.336Zm13.462,0c0-3.744-2.412-6.012-5.363-6.012s-5.363,2.268-5.363,6.012,2.412,6.011,5.363,6.011S594.894,597.079,594.894,593.336Z" transform="translate(-229 -75.859)"/>
        <path d="M401.076,633.514h2.88V652.7h10.187v2.411H401.076Z" transform="translate(-229 -75.859)"/>
        <path d="M415.8,647.228c0-5,3.708-8.1,7.523-8.1,3.887,0,6.623,2.52,6.623,6.047a9.812,9.812,0,0,1-.216,1.764H418.5c-.216,2.735,1.08,6.371,6.047,6.371a8.081,8.081,0,0,0,5.111-2.016v2.412a9.977,9.977,0,0,1-6.047,1.836C419.04,655.543,415.8,652.051,415.8,647.228Zm11.519-2.2c.324-2.088-1.332-3.743-3.887-3.743a4.468,4.468,0,0,0-4.68,3.743Z" transform="translate(-229 -75.859)"/>
        <path d="M435.6,641.432h-3.492v-1.871H435.6v-4.248h2.736v4.248h3.527v1.871h-3.527V655.11H435.6Z" transform="translate(-229 -75.859)"/>
        <path d="M446.579,641.432h-3.492v-1.871h3.492v-4.248h2.736v4.248h3.527v1.871h-3.527V655.11h-2.736Z" transform="translate(-229 -75.859)"/>
        <path d="M454.823,647.228c0-5,3.708-8.1,7.523-8.1,3.887,0,6.623,2.52,6.623,6.047a9.812,9.812,0,0,1-.216,1.764h-11.23c-.216,2.735,1.08,6.371,6.047,6.371a8.081,8.081,0,0,0,5.111-2.016v2.412a9.977,9.977,0,0,1-6.047,1.836C458.063,655.543,454.823,652.051,454.823,647.228Zm11.519-2.2c.324-2.088-1.332-3.743-3.887-3.743a4.468,4.468,0,0,0-4.68,3.743Z" transform="translate(-229 -75.859)"/>
        <path d="M472.751,639.561h2.375l.18,2.987a6.991,6.991,0,0,1,6.047-3.419v2.951c-2.952-.54-5.867,1.152-5.867,3.779v9.251h-2.735Z" transform="translate(-229 -75.859)"/>
        <path d="M484.09,633.514h2.735v8.711a7.531,7.531,0,0,1,5.867-3.1c4.14,0,5.615,2.879,5.615,6.73v9.251h-2.735v-9c0-3.491-1.368-4.643-3.636-4.643-2.231,0-5.111,1.943-5.111,4.463v9.179H484.09Z" transform="translate(-229 -75.859)"/>
        <path d="M501.874,647.228c0-5,3.708-8.1,7.523-8.1,3.887,0,6.623,2.52,6.623,6.047a9.812,9.812,0,0,1-.216,1.764h-11.23c-.216,2.735,1.08,6.371,6.047,6.371a8.081,8.081,0,0,0,5.111-2.016v2.412a9.977,9.977,0,0,1-6.047,1.836C505.113,655.543,501.874,652.051,501.874,647.228Zm11.519-2.2c.324-2.088-1.332-3.743-3.887-3.743a4.468,4.468,0,0,0-4.68,3.743Z" transform="translate(-229 -75.859)"/>
        <path d="M518.9,647.336c0-4.536,3.131-8.207,7.415-8.207a7.268,7.268,0,0,1,6.119,3.239l.108-2.808h2.375v15.55h-2.375l-.108-2.808a7.269,7.269,0,0,1-6.119,3.24C522.033,655.543,518.9,651.871,518.9,647.336Zm13.462,0c0-3.744-2.412-6.012-5.363-6.012s-5.363,2.268-5.363,6.012,2.412,6.011,5.363,6.011S532.364,651.079,532.364,647.336Z" transform="translate(-229 -75.859)"/>
        <path d="M538.485,647.336c0-4.536,3.131-8.207,7.415-8.207a7.247,7.247,0,0,1,5.867,2.879v-8.494H554.5v21.6h-2.375l-.108-2.808a7.269,7.269,0,0,1-6.119,3.24C541.617,655.543,538.485,651.871,538.485,647.336Zm13.462,0c0-3.744-2.412-6.012-5.363-6.012s-5.363,2.268-5.363,6.012,2.412,6.011,5.363,6.011S551.947,651.079,551.947,647.336Z" transform="translate(-229 -75.859)"/>
      </g>
      <g>
        <path d="M935.076,524.513h2.88V543.7h10.187v2.411H935.076Z" transform="translate(-229 -75.859)"/>
        <path d="M949.584,538.335a8.478,8.478,0,1,1,8.5,8.351A8.255,8.255,0,0,1,949.584,538.335Zm14.219,0c0-3.384-2.2-6.155-5.724-6.155-3.564,0-5.759,2.771-5.759,6.155,0,3.419,2.231,6.155,5.759,6.155S963.8,541.755,963.8,538.335Z" transform="translate(-229 -75.859)"/>
        <path d="M970.392,551.654v-2.448a11.374,11.374,0,0,0,6.731,2.016c2.7,0,5.184-1.62,5.184-6.191v-1.368a7.251,7.251,0,0,1-5.867,2.881c-4.284,0-7.416-3.672-7.416-8.208s3.132-8.207,7.416-8.207a7.27,7.27,0,0,1,6.119,3.24l.107-2.808h2.375v14.182c0,7.2-4.5,8.711-8.242,8.711A13.309,13.309,0,0,1,970.392,551.654Zm12.095-13.319c0-3.744-2.412-6.011-5.363-6.011s-5.363,2.268-5.363,6.011,2.411,6.011,5.363,6.011S982.486,542.079,982.486,538.335Z" transform="translate(-229 -75.859)"/>
        <path d="M988.428,538.335a8.478,8.478,0,1,1,8.494,8.351A8.255,8.255,0,0,1,988.428,538.335Zm14.218,0c0-3.384-2.2-6.155-5.724-6.155-3.563,0-5.759,2.771-5.759,6.155,0,3.419,2.231,6.155,5.759,6.155S1002.646,541.755,1002.646,538.335Z" transform="translate(-229 -75.859)"/>
        <path d="M935.076,577.514H942.2c4.391,0,6.263,2.555,6.263,5.65a5.712,5.712,0,0,1-2.268,4.248,5.871,5.871,0,0,1,3.42,5.363c0,3.491-2.124,6.335-7.055,6.335h-7.487Zm7.127,8.926c2.7,0,3.527-1.619,3.527-3.275s-.828-3.239-3.527-3.239h-4.248v6.515Zm.36,10.26c3.239,0,4.211-1.944,4.211-3.924s-.972-3.924-4.211-3.924h-4.607V596.7Z" transform="translate(-229 -75.859)"/>
        <path d="M952.824,592.811v-9.25h2.735v9c0,3.492,1.368,4.645,3.636,4.645,2.232,0,5.111-1.944,5.111-4.464v-9.179h2.736v15.55h-2.377l-.18-2.987a7.312,7.312,0,0,1-6.047,3.42C954.3,599.543,952.824,596.662,952.824,592.811Z" transform="translate(-229 -75.859)"/>
        <path d="M970.428,597.959l.54-2.16a10.562,10.562,0,0,0,5.291,1.619c1.944,0,3.456-.684,3.456-2.411,0-1.368-1.4-2.124-3.96-2.771-3.312-.828-4.823-2.592-4.823-4.607,0-2.448,1.871-4.536,5.688-4.536a10.778,10.778,0,0,1,4.823,1.3l-.54,2.088a8.21,8.21,0,0,0-4.283-1.26c-2.124,0-3.168.791-3.168,2.051,0,1.332,1.3,2.124,3.348,2.628,3.563.864,5.436,2.483,5.436,4.536,0,3.275-2.484,5.146-6.047,5.146A11.256,11.256,0,0,1,970.428,597.959Z" transform="translate(-229 -75.859)"/>
        <path d="M985.655,577.514h2.735V580.5h-2.735Zm0,6.047h2.735v15.55h-2.735Z" transform="translate(-229 -75.859)"/>
        <path d="M992.855,583.561h2.375l.18,2.987a7.261,7.261,0,0,1,6.047-3.419c4.141,0,5.615,2.879,5.615,6.73v9.251h-2.734v-9c0-3.491-1.368-4.643-3.637-4.643-2.23,0-5.111,1.943-5.111,4.463v9.179h-2.734Z" transform="translate(-229 -75.859)"/>
        <path d="M1010.639,591.228c0-5,3.707-8.1,7.523-8.1,3.887,0,6.623,2.52,6.623,6.047a9.813,9.813,0,0,1-.217,1.764h-11.23c-.216,2.735,1.08,6.371,6.047,6.371a8.08,8.08,0,0,0,5.111-2.016v2.412a9.974,9.974,0,0,1-6.047,1.836C1013.878,599.543,1010.639,596.051,1010.639,591.228Zm11.518-2.2c.324-2.088-1.331-3.743-3.887-3.743a4.468,4.468,0,0,0-4.68,3.743Z" transform="translate(-229 -75.859)"/>
        <path d="M1027.486,597.959l.54-2.16a10.562,10.562,0,0,0,5.291,1.619c1.944,0,3.456-.684,3.456-2.411,0-1.368-1.4-2.124-3.96-2.771-3.312-.828-4.823-2.592-4.823-4.607,0-2.448,1.871-4.536,5.688-4.536a10.778,10.778,0,0,1,4.823,1.3l-.54,2.088a8.21,8.21,0,0,0-4.283-1.26c-2.124,0-3.168.791-3.168,2.051,0,1.332,1.3,2.124,3.348,2.628,3.563.864,5.436,2.483,5.436,4.536,0,3.275-2.484,5.146-6.047,5.146A11.256,11.256,0,0,1,1027.486,597.959Z" transform="translate(-229 -75.859)"/>
        <path d="M1041.634,597.959l.54-2.16a10.562,10.562,0,0,0,5.291,1.619c1.943,0,3.455-.684,3.455-2.411,0-1.368-1.4-2.124-3.959-2.771-3.312-.828-4.823-2.592-4.823-4.607,0-2.448,1.872-4.536,5.688-4.536a10.783,10.783,0,0,1,4.823,1.3l-.54,2.088a8.208,8.208,0,0,0-4.283-1.26c-2.124,0-3.168.791-3.168,2.051,0,1.332,1.3,2.124,3.348,2.628,3.563.864,5.436,2.483,5.436,4.536,0,3.275-2.483,5.146-6.048,5.146A11.25,11.25,0,0,1,1041.634,597.959Z" transform="translate(-229 -75.859)"/>
        <path d="M1062.8,588.312c0-6.983,5.256-11.267,11.482-11.267a13.18,13.18,0,0,1,7.487,2.268V582.3a10.776,10.776,0,0,0-7.487-2.844c-4.967,0-8.494,3.455-8.494,8.854,0,5.363,3.527,8.854,8.494,8.854a10.776,10.776,0,0,0,7.487-2.844v2.988a13.18,13.18,0,0,1-7.487,2.268C1068.057,599.578,1062.8,595.295,1062.8,588.312Z" transform="translate(-229 -75.859)"/>
        <path d="M1084.509,591.336c0-4.536,3.132-8.207,7.415-8.207a7.268,7.268,0,0,1,6.119,3.239l.107-2.808h2.376v15.55h-2.376l-.107-2.808a7.269,7.269,0,0,1-6.119,3.24C1087.641,599.543,1084.509,595.871,1084.509,591.336Zm13.462,0c0-3.744-2.412-6.012-5.363-6.012s-5.363,2.268-5.363,6.012,2.412,6.011,5.363,6.011S1097.971,595.079,1097.971,591.336Z" transform="translate(-229 -75.859)"/>
        <path d="M1104.992,583.561h2.375l.181,2.987a6.991,6.991,0,0,1,6.047-3.419v2.951c-2.952-.54-5.867,1.152-5.867,3.779v9.251h-2.735Z" transform="translate(-229 -75.859)"/>
        <path d="M1115.432,591.336c0-4.536,3.131-8.207,7.415-8.207a7.248,7.248,0,0,1,5.867,2.879v-8.494h2.735v21.6h-2.375l-.108-2.808a7.269,7.269,0,0,1-6.119,3.24C1118.563,599.543,1115.432,595.871,1115.432,591.336Zm13.462,0c0-3.744-2.411-6.012-5.363-6.012s-5.363,2.268-5.363,6.012,2.411,6.011,5.363,6.011S1128.894,595.079,1128.894,591.336Z" transform="translate(-229 -75.859)"/>
        <path d="M935.076,630.514h2.88V649.7h10.187v2.411H935.076Z" transform="translate(-229 -75.859)"/>
        <path d="M949.8,644.228c0-5,3.708-8.1,7.523-8.1,3.888,0,6.623,2.52,6.623,6.047a9.9,9.9,0,0,1-.216,1.764H952.5c-.216,2.735,1.08,6.371,6.047,6.371a8.08,8.08,0,0,0,5.111-2.016v2.412a9.977,9.977,0,0,1-6.047,1.836C953.04,652.543,949.8,649.051,949.8,644.228Zm11.519-2.2c.324-2.088-1.332-3.743-3.887-3.743a4.468,4.468,0,0,0-4.68,3.743Z" transform="translate(-229 -75.859)"/>
        <path d="M969.6,638.432h-3.492v-1.871H969.6v-4.248h2.736v4.248h3.527v1.871h-3.527V652.11H969.6Z" transform="translate(-229 -75.859)"/>
        <path d="M980.579,638.432h-3.491v-1.871h3.491v-4.248h2.735v4.248h3.527v1.871h-3.527V652.11h-2.735Z" transform="translate(-229 -75.859)"/>
        <path d="M988.822,644.228c0-5,3.708-8.1,7.523-8.1,3.888,0,6.623,2.52,6.623,6.047a9.811,9.811,0,0,1-.216,1.764h-11.23c-.216,2.735,1.08,6.371,6.048,6.371a8.082,8.082,0,0,0,5.111-2.016v2.412a9.979,9.979,0,0,1-6.048,1.836C992.063,652.543,988.822,649.051,988.822,644.228Zm11.52-2.2c.324-2.088-1.332-3.743-3.888-3.743a4.467,4.467,0,0,0-4.68,3.743Z" transform="translate(-229 -75.859)"/>
        <path d="M1006.751,636.561h2.376l.18,2.987a6.992,6.992,0,0,1,6.047-3.419v2.951c-2.951-.54-5.867,1.152-5.867,3.779v9.251h-2.735Z" transform="translate(-229 -75.859)"/>
        <path d="M1018.09,630.514h2.736v8.711a7.531,7.531,0,0,1,5.867-3.1c4.139,0,5.615,2.879,5.615,6.73v9.251h-2.736v-9c0-3.491-1.367-4.643-3.635-4.643-2.232,0-5.111,1.943-5.111,4.463v9.179h-2.736Z" transform="translate(-229 -75.859)"/>
        <path d="M1035.873,644.228c0-5,3.708-8.1,7.523-8.1,3.888,0,6.623,2.52,6.623,6.047a9.811,9.811,0,0,1-.216,1.764h-11.23c-.216,2.735,1.08,6.371,6.048,6.371a8.082,8.082,0,0,0,5.111-2.016v2.412a9.979,9.979,0,0,1-6.048,1.836C1039.113,652.543,1035.873,649.051,1035.873,644.228Zm11.52-2.2c.324-2.088-1.332-3.743-3.888-3.743a4.467,4.467,0,0,0-4.68,3.743Z" transform="translate(-229 -75.859)"/>
        <path d="M1052.9,644.336c0-4.536,3.131-8.207,7.414-8.207a7.265,7.265,0,0,1,6.119,3.239l.108-2.808h2.376v15.55h-2.376l-.108-2.808a7.266,7.266,0,0,1-6.119,3.24C1056.033,652.543,1052.9,648.871,1052.9,644.336Zm13.461,0c0-3.744-2.411-6.012-5.363-6.012s-5.363,2.268-5.363,6.012,2.412,6.011,5.363,6.011S1066.363,648.079,1066.363,644.336Z" transform="translate(-229 -75.859)"/>
        <path d="M1072.485,644.336c0-4.536,3.132-8.207,7.415-8.207a7.246,7.246,0,0,1,5.867,2.879v-8.494h2.735v21.6h-2.376l-.107-2.808a7.269,7.269,0,0,1-6.119,3.24C1075.617,652.543,1072.485,648.871,1072.485,644.336Zm13.462,0c0-3.744-2.412-6.012-5.363-6.012s-5.363,2.268-5.363,6.012,2.412,6.011,5.363,6.011S1085.947,648.079,1085.947,644.336Z" transform="translate(-229 -75.859)"/>
        <path d="M935.076,683.514h13.066v2.411H937.956v6.587h8.387v2.412h-8.387V702.7h10.187v2.411H935.076Z" transform="translate(-229 -75.859)"/>
        <path d="M951.96,689.561h2.375l.18,2.987a7.26,7.26,0,0,1,6.047-3.419c4.14,0,5.615,2.879,5.615,6.73v9.251h-2.735v-9c0-3.491-1.368-4.643-3.636-4.643-2.231,0-5.111,1.943-5.111,4.463v9.179H951.96Z" transform="translate(-229 -75.859)"/>
        <path d="M967.907,689.561h2.808l5.039,11.662,5-11.662h2.664l-6.84,15.586h-1.836Z" transform="translate(-229 -75.859)"/>
        <path d="M984.5,697.228c0-5,3.708-8.1,7.523-8.1,3.888,0,6.623,2.52,6.623,6.047a9.9,9.9,0,0,1-.216,1.764H987.2c-.217,2.735,1.08,6.371,6.047,6.371a8.08,8.08,0,0,0,5.111-2.016v2.412a9.976,9.976,0,0,1-6.047,1.836C987.742,705.543,984.5,702.051,984.5,697.228Zm11.519-2.2c.324-2.088-1.332-3.743-3.887-3.743a4.467,4.467,0,0,0-4.68,3.743Z" transform="translate(-229 -75.859)"/>
        <path d="M1002.432,683.514h2.734v21.6h-2.734Z" transform="translate(-229 -75.859)"/>
        <path d="M1008.551,697.336a8.478,8.478,0,1,1,8.5,8.351A8.255,8.255,0,0,1,1008.551,697.336Zm14.219,0c0-3.385-2.2-6.156-5.724-6.156-3.563,0-5.759,2.771-5.759,6.156,0,3.419,2.23,6.154,5.759,6.154S1022.77,700.755,1022.77,697.336Z" transform="translate(-229 -75.859)"/>
        <path d="M1028.891,689.561h2.375l.108,2.808a7.268,7.268,0,0,1,6.119-3.239c4.284,0,7.415,3.671,7.415,8.207s-3.131,8.207-7.415,8.207a7.249,7.249,0,0,1-5.867-2.881v9.467h-2.735Zm13.282,7.775c0-3.744-2.411-6.012-5.363-6.012s-5.363,2.268-5.363,6.012,2.411,6.011,5.363,6.011S1042.173,701.079,1042.173,697.336Z" transform="translate(-229 -75.859)"/>
        <path d="M1047.609,697.228c0-5,3.708-8.1,7.523-8.1,3.888,0,6.623,2.52,6.623,6.047a9.811,9.811,0,0,1-.216,1.764h-11.23c-.216,2.735,1.08,6.371,6.048,6.371a8.082,8.082,0,0,0,5.111-2.016v2.412a9.979,9.979,0,0,1-6.048,1.836C1050.85,705.543,1047.609,702.051,1047.609,697.228Zm11.52-2.2c.324-2.088-1.332-3.743-3.888-3.743a4.467,4.467,0,0,0-4.68,3.743Z" transform="translate(-229 -75.859)"/>
        <path d="M933.96,755.951l.648-2.664a8.8,8.8,0,0,0,6.551,2.951c2.556,0,4.535-1.439,4.535-3.779,0-2.2-1.08-3.42-5.111-4.5-4.067-1.079-6.011-3.275-6.011-6.3,0-3.06,2.52-5.615,6.947-5.615a9.706,9.706,0,0,1,5.867,1.98l-.648,2.268a9.626,9.626,0,0,0-5.219-1.908c-2.7,0-4.248,1.26-4.248,3.275,0,1.548.972,2.844,4.355,3.744,4.644,1.224,6.767,3.239,6.767,6.8,0,4.211-3.527,6.371-7.235,6.371A10.119,10.119,0,0,1,933.96,755.951Z" transform="translate(-229 -75.859)"/>
        <path d="M950.772,750.336a8.478,8.478,0,1,1,8.5,8.351A8.255,8.255,0,0,1,950.772,750.336Zm14.218,0c0-3.385-2.2-6.156-5.723-6.156-3.564,0-5.759,2.771-5.759,6.156,0,3.419,2.231,6.154,5.759,6.154S964.99,753.755,964.99,750.336Z" transform="translate(-229 -75.859)"/>
        <path d="M970.248,750.336a7.816,7.816,0,0,1,8.1-8.207,8.749,8.749,0,0,1,5.436,1.583V746.2a7.478,7.478,0,0,0-5.184-1.836c-3.348,0-5.615,2.557-5.615,5.977,0,3.49,2.268,5.975,5.615,5.975a7.473,7.473,0,0,0,5.184-1.836v2.484a8.756,8.756,0,0,1-5.436,1.584A7.816,7.816,0,0,1,970.248,750.336Z" transform="translate(-229 -75.859)"/>
        <path d="M987.313,736.514h2.734V739.5h-2.734Zm0,6.047h2.734v15.55h-2.734Z" transform="translate(-229 -75.859)"/>
        <path d="M993.611,750.336c0-4.536,3.132-8.207,7.416-8.207a7.27,7.27,0,0,1,6.119,3.239l.107-2.808h2.375v15.55h-2.375l-.107-2.808a7.271,7.271,0,0,1-6.119,3.24C996.743,758.543,993.611,754.871,993.611,750.336Zm13.463,0c0-3.744-2.412-6.012-5.363-6.012s-5.363,2.268-5.363,6.012,2.411,6.011,5.363,6.011S1007.074,754.079,1007.074,750.336Z" transform="translate(-229 -75.859)"/>
        <path d="M1014.1,736.514h2.734v21.6H1014.1Z" transform="translate(-229 -75.859)"/>
        <path d="M1028.278,736.514h2.808l8.352,17.926,8.351-17.926h2.663v21.6h-2.771V743.389c0-.541.072-1.764.072-1.8-.072.108-.54,1.3-.756,1.8l-6.73,14.722h-1.944l-6.731-14.722c-.252-.541-.72-1.692-.756-1.8,0,.037.072,1.26.072,1.8V758.11h-2.628Z" transform="translate(-229 -75.859)"/>
        <path d="M1054.09,750.228c0-5,3.707-8.1,7.523-8.1,3.887,0,6.623,2.52,6.623,6.047a9.726,9.726,0,0,1-.217,1.764h-11.23c-.215,2.735,1.08,6.371,6.048,6.371a8.082,8.082,0,0,0,5.111-2.016v2.412a9.977,9.977,0,0,1-6.048,1.836C1057.33,758.543,1054.09,755.051,1054.09,750.228Zm11.519-2.2c.324-2.088-1.331-3.743-3.888-3.743a4.468,4.468,0,0,0-4.68,3.743Z" transform="translate(-229 -75.859)"/>
        <path d="M1071.118,750.336c0-4.536,3.132-8.207,7.415-8.207a7.246,7.246,0,0,1,5.867,2.879v-8.494h2.735v21.6h-2.376l-.107-2.808a7.269,7.269,0,0,1-6.119,3.24C1074.25,758.543,1071.118,754.871,1071.118,750.336Zm13.462,0c0-3.744-2.412-6.012-5.363-6.012s-5.363,2.268-5.363,6.012,2.412,6.011,5.363,6.011S1084.58,754.079,1084.58,750.336Z" transform="translate(-229 -75.859)"/>
        <path d="M1091.6,736.514h2.735V739.5H1091.6Zm0,6.047h2.735v15.55H1091.6Z" transform="translate(-229 -75.859)"/>
        <path d="M1097.9,750.336c0-4.536,3.132-8.207,7.415-8.207a7.268,7.268,0,0,1,6.119,3.239l.107-2.808h2.376v15.55h-2.376l-.107-2.808a7.269,7.269,0,0,1-6.119,3.24C1101.033,758.543,1097.9,754.871,1097.9,750.336Zm13.462,0c0-3.744-2.412-6.012-5.363-6.012s-5.363,2.268-5.363,6.012,2.412,6.011,5.363,6.011S1111.363,754.079,1111.363,750.336Z" transform="translate(-229 -75.859)"/>
        <path d="M1125.368,736.514h2.88v9h11.914v-9h2.88v21.6h-2.88V747.924h-11.914V758.11h-2.88Z" transform="translate(-229 -75.859)"/>
        <path d="M1146.68,750.228c0-5,3.707-8.1,7.523-8.1,3.887,0,6.623,2.52,6.623,6.047a9.726,9.726,0,0,1-.217,1.764h-11.23c-.215,2.735,1.08,6.371,6.048,6.371a8.082,8.082,0,0,0,5.111-2.016v2.412a9.977,9.977,0,0,1-6.048,1.836C1149.92,758.543,1146.68,755.051,1146.68,750.228Zm11.519-2.2c.324-2.088-1.331-3.743-3.888-3.743a4.468,4.468,0,0,0-4.68,3.743Z" transform="translate(-229 -75.859)"/>
        <path d="M1163.708,750.336c0-4.536,3.132-8.207,7.415-8.207a7.268,7.268,0,0,1,6.119,3.239l.107-2.808h2.376v15.55h-2.376l-.107-2.808a7.269,7.269,0,0,1-6.119,3.24C1166.84,758.543,1163.708,754.871,1163.708,750.336Zm13.462,0c0-3.744-2.412-6.012-5.363-6.012s-5.363,2.268-5.363,6.012,2.412,6.011,5.363,6.011S1177.17,754.079,1177.17,750.336Z" transform="translate(-229 -75.859)"/>
        <path d="M1183.291,750.336c0-4.536,3.132-8.207,7.416-8.207a7.249,7.249,0,0,1,5.867,2.879v-8.494h2.734v21.6h-2.375l-.107-2.808a7.271,7.271,0,0,1-6.119,3.24C1186.423,758.543,1183.291,754.871,1183.291,750.336Zm13.463,0c0-3.744-2.412-6.012-5.363-6.012s-5.363,2.268-5.363,6.012,2.411,6.011,5.363,6.011S1196.754,754.079,1196.754,750.336Z" transform="translate(-229 -75.859)"/>
        <path d="M1202.91,750.228c0-5,3.708-8.1,7.523-8.1,3.888,0,6.623,2.52,6.623,6.047a9.811,9.811,0,0,1-.216,1.764h-11.23c-.216,2.735,1.08,6.371,6.048,6.371a8.082,8.082,0,0,0,5.111-2.016v2.412a9.979,9.979,0,0,1-6.048,1.836C1206.15,758.543,1202.91,755.051,1202.91,750.228Zm11.52-2.2c.324-2.088-1.332-3.743-3.888-3.743a4.467,4.467,0,0,0-4.68,3.743Z" transform="translate(-229 -75.859)"/>
        <path d="M1220.839,742.561h2.376l.18,2.987a6.992,6.992,0,0,1,6.047-3.419v2.951c-2.951-.54-5.867,1.152-5.867,3.779v9.251h-2.735Z" transform="translate(-229 -75.859)"/>
        <path d="M1231.1,756.959l.541-2.16a10.555,10.555,0,0,0,5.291,1.619c1.943,0,3.455-.684,3.455-2.411,0-1.368-1.4-2.124-3.959-2.771-3.312-.828-4.824-2.592-4.824-4.607,0-2.448,1.872-4.536,5.688-4.536a10.784,10.784,0,0,1,4.824,1.3l-.541,2.088a8.2,8.2,0,0,0-4.283-1.26c-2.123,0-3.168.791-3.168,2.051,0,1.332,1.3,2.124,3.348,2.628,3.564.864,5.436,2.483,5.436,4.536,0,3.275-2.483,5.146-6.047,5.146A11.256,11.256,0,0,1,1231.1,756.959Z" transform="translate(-229 -75.859)"/>
      </g>
      <g>
        <path d="M1483.076,522.513h2.88V541.7h10.187v2.411h-13.066Z" transform="translate(-229 -75.859)"/>
        <path d="M1497.584,536.335a8.478,8.478,0,1,1,8.5,8.351A8.255,8.255,0,0,1,1497.584,536.335Zm14.219,0c0-3.384-2.2-6.155-5.724-6.155-3.563,0-5.759,2.771-5.759,6.155,0,3.419,2.23,6.155,5.759,6.155S1511.8,539.755,1511.8,536.335Z" transform="translate(-229 -75.859)"/>
        <path d="M1518.392,549.654v-2.448a11.374,11.374,0,0,0,6.731,2.016c2.7,0,5.184-1.62,5.184-6.191v-1.368a7.251,7.251,0,0,1-5.867,2.881c-4.284,0-7.416-3.672-7.416-8.208s3.132-8.207,7.416-8.207a7.27,7.27,0,0,1,6.119,3.24l.107-2.808h2.375v14.182c0,7.2-4.5,8.711-8.242,8.711A13.309,13.309,0,0,1,1518.392,549.654Zm12.095-13.319c0-3.744-2.412-6.011-5.363-6.011s-5.363,2.268-5.363,6.011,2.411,6.011,5.363,6.011S1530.486,540.079,1530.486,536.335Z" transform="translate(-229 -75.859)"/>
        <path d="M1536.428,536.335a8.478,8.478,0,1,1,8.494,8.351A8.255,8.255,0,0,1,1536.428,536.335Zm14.218,0c0-3.384-2.2-6.155-5.724-6.155-3.563,0-5.759,2.771-5.759,6.155,0,3.419,2.231,6.155,5.759,6.155S1550.646,539.755,1550.646,536.335Z" transform="translate(-229 -75.859)"/>
        <path d="M1483.076,575.514h7.127c4.392,0,6.264,2.555,6.264,5.65a5.713,5.713,0,0,1-2.268,4.248,5.871,5.871,0,0,1,3.42,5.363c0,3.491-2.125,6.335-7.056,6.335h-7.487Zm7.127,8.926c2.7,0,3.527-1.619,3.527-3.275s-.827-3.239-3.527-3.239h-4.247v6.515Zm.36,10.26c3.239,0,4.212-1.944,4.212-3.924s-.973-3.924-4.212-3.924h-4.607V594.7Z" transform="translate(-229 -75.859)"/>
        <path d="M1500.824,590.811v-9.25h2.735v9c0,3.492,1.368,4.645,3.636,4.645,2.232,0,5.111-1.944,5.111-4.464v-9.179h2.736v15.55h-2.377l-.18-2.987a7.312,7.312,0,0,1-6.047,3.42C1502.3,597.543,1500.824,594.662,1500.824,590.811Z" transform="translate(-229 -75.859)"/>
        <path d="M1518.428,595.959l.54-2.16a10.562,10.562,0,0,0,5.291,1.619c1.944,0,3.456-.684,3.456-2.411,0-1.368-1.4-2.124-3.96-2.771-3.312-.828-4.823-2.592-4.823-4.607,0-2.448,1.871-4.536,5.688-4.536a10.778,10.778,0,0,1,4.823,1.3l-.54,2.088a8.21,8.21,0,0,0-4.283-1.26c-2.124,0-3.168.791-3.168,2.051,0,1.332,1.3,2.124,3.348,2.628,3.563.864,5.436,2.483,5.436,4.536,0,3.275-2.484,5.146-6.047,5.146A11.256,11.256,0,0,1,1518.428,595.959Z" transform="translate(-229 -75.859)"/>
        <path d="M1533.655,575.514h2.735V578.5h-2.735Zm0,6.047h2.735v15.55h-2.735Z" transform="translate(-229 -75.859)"/>
        <path d="M1540.855,581.561h2.375l.18,2.987a7.261,7.261,0,0,1,6.047-3.419c4.141,0,5.615,2.879,5.615,6.73v9.251h-2.734v-9c0-3.491-1.368-4.643-3.637-4.643-2.23,0-5.111,1.943-5.111,4.463v9.179h-2.734Z" transform="translate(-229 -75.859)"/>
        <path d="M1558.639,589.228c0-5,3.707-8.1,7.523-8.1,3.887,0,6.623,2.52,6.623,6.047a9.813,9.813,0,0,1-.217,1.764h-11.23c-.216,2.735,1.08,6.371,6.047,6.371a8.08,8.08,0,0,0,5.111-2.016v2.412a9.974,9.974,0,0,1-6.047,1.836C1561.878,597.543,1558.639,594.051,1558.639,589.228Zm11.518-2.2c.324-2.088-1.331-3.743-3.887-3.743a4.468,4.468,0,0,0-4.68,3.743Z" transform="translate(-229 -75.859)"/>
        <path d="M1575.486,595.959l.54-2.16a10.562,10.562,0,0,0,5.291,1.619c1.944,0,3.456-.684,3.456-2.411,0-1.368-1.4-2.124-3.96-2.771-3.312-.828-4.823-2.592-4.823-4.607,0-2.448,1.871-4.536,5.688-4.536a10.778,10.778,0,0,1,4.823,1.3l-.54,2.088a8.21,8.21,0,0,0-4.283-1.26c-2.124,0-3.168.791-3.168,2.051,0,1.332,1.3,2.124,3.348,2.628,3.563.864,5.436,2.483,5.436,4.536,0,3.275-2.484,5.146-6.047,5.146A11.256,11.256,0,0,1,1575.486,595.959Z" transform="translate(-229 -75.859)"/>
        <path d="M1589.634,595.959l.54-2.16a10.562,10.562,0,0,0,5.291,1.619c1.943,0,3.455-.684,3.455-2.411,0-1.368-1.4-2.124-3.959-2.771-3.312-.828-4.823-2.592-4.823-4.607,0-2.448,1.872-4.536,5.688-4.536a10.783,10.783,0,0,1,4.823,1.3l-.54,2.088a8.208,8.208,0,0,0-4.283-1.26c-2.124,0-3.168.791-3.168,2.051,0,1.332,1.3,2.124,3.348,2.628,3.563.864,5.436,2.483,5.436,4.536,0,3.275-2.483,5.146-6.048,5.146A11.25,11.25,0,0,1,1589.634,595.959Z" transform="translate(-229 -75.859)"/>
        <path d="M1610.8,586.312c0-6.983,5.256-11.267,11.482-11.267a13.18,13.18,0,0,1,7.487,2.268V580.3a10.776,10.776,0,0,0-7.487-2.844c-4.967,0-8.494,3.455-8.494,8.854,0,5.363,3.527,8.854,8.494,8.854a10.776,10.776,0,0,0,7.487-2.844v2.988a13.18,13.18,0,0,1-7.487,2.268C1616.057,597.578,1610.8,593.295,1610.8,586.312Z" transform="translate(-229 -75.859)"/>
        <path d="M1632.509,589.336c0-4.536,3.132-8.207,7.415-8.207a7.268,7.268,0,0,1,6.119,3.239l.107-2.808h2.376v15.55h-2.376l-.107-2.808a7.269,7.269,0,0,1-6.119,3.24C1635.641,597.543,1632.509,593.871,1632.509,589.336Zm13.462,0c0-3.744-2.412-6.012-5.363-6.012s-5.363,2.268-5.363,6.012,2.412,6.011,5.363,6.011S1645.971,593.079,1645.971,589.336Z" transform="translate(-229 -75.859)"/>
        <path d="M1652.992,581.561h2.375l.181,2.987a6.991,6.991,0,0,1,6.047-3.419v2.951c-2.952-.54-5.867,1.152-5.867,3.779v9.251h-2.735Z" transform="translate(-229 -75.859)"/>
        <path d="M1663.432,589.336c0-4.536,3.131-8.207,7.415-8.207a7.248,7.248,0,0,1,5.867,2.879v-8.494h2.735v21.6h-2.375l-.108-2.808a7.269,7.269,0,0,1-6.119,3.24C1666.563,597.543,1663.432,593.871,1663.432,589.336Zm13.462,0c0-3.744-2.411-6.012-5.363-6.012s-5.363,2.268-5.363,6.012,2.411,6.011,5.363,6.011S1676.894,593.079,1676.894,589.336Z" transform="translate(-229 -75.859)"/>
        <path d="M1483.076,628.514h2.88V647.7h10.187v2.411h-13.066Z" transform="translate(-229 -75.859)"/>
        <path d="M1497.8,642.228c0-5,3.708-8.1,7.523-8.1,3.888,0,6.623,2.52,6.623,6.047a9.9,9.9,0,0,1-.216,1.764H1500.5c-.217,2.735,1.08,6.371,6.047,6.371a8.08,8.08,0,0,0,5.111-2.016v2.412a9.976,9.976,0,0,1-6.047,1.836C1501.039,650.543,1497.8,647.051,1497.8,642.228Zm11.519-2.2c.324-2.088-1.332-3.743-3.887-3.743a4.467,4.467,0,0,0-4.68,3.743Z" transform="translate(-229 -75.859)"/>
        <path d="M1517.6,636.432h-3.492v-1.871h3.492v-4.248h2.736v4.248h3.527v1.871h-3.527V650.11H1517.6Z" transform="translate(-229 -75.859)"/>
        <path d="M1528.579,636.432h-3.491v-1.871h3.491v-4.248h2.735v4.248h3.527v1.871h-3.527V650.11h-2.735Z" transform="translate(-229 -75.859)"/>
        <path d="M1536.822,642.228c0-5,3.708-8.1,7.523-8.1,3.888,0,6.623,2.52,6.623,6.047a9.811,9.811,0,0,1-.216,1.764h-11.23c-.216,2.735,1.08,6.371,6.048,6.371a8.082,8.082,0,0,0,5.111-2.016v2.412a9.979,9.979,0,0,1-6.048,1.836C1540.063,650.543,1536.822,647.051,1536.822,642.228Zm11.52-2.2c.324-2.088-1.332-3.743-3.888-3.743a4.467,4.467,0,0,0-4.68,3.743Z" transform="translate(-229 -75.859)"/>
        <path d="M1554.751,634.561h2.376l.18,2.987a6.992,6.992,0,0,1,6.047-3.419v2.951c-2.951-.54-5.867,1.152-5.867,3.779v9.251h-2.735Z" transform="translate(-229 -75.859)"/>
        <path d="M1566.09,628.514h2.736v8.711a7.531,7.531,0,0,1,5.867-3.1c4.139,0,5.615,2.879,5.615,6.73v9.251h-2.736v-9c0-3.491-1.367-4.643-3.635-4.643-2.232,0-5.111,1.943-5.111,4.463v9.179h-2.736Z" transform="translate(-229 -75.859)"/>
        <path d="M1583.873,642.228c0-5,3.708-8.1,7.523-8.1,3.888,0,6.623,2.52,6.623,6.047a9.811,9.811,0,0,1-.216,1.764h-11.23c-.216,2.735,1.08,6.371,6.048,6.371a8.082,8.082,0,0,0,5.111-2.016v2.412a9.979,9.979,0,0,1-6.048,1.836C1587.113,650.543,1583.873,647.051,1583.873,642.228Zm11.52-2.2c.324-2.088-1.332-3.743-3.888-3.743a4.467,4.467,0,0,0-4.68,3.743Z" transform="translate(-229 -75.859)"/>
        <path d="M1600.9,642.336c0-4.536,3.131-8.207,7.414-8.207a7.265,7.265,0,0,1,6.119,3.239l.108-2.808h2.376v15.55h-2.376l-.108-2.808a7.266,7.266,0,0,1-6.119,3.24C1604.033,650.543,1600.9,646.871,1600.9,642.336Zm13.461,0c0-3.744-2.411-6.012-5.363-6.012s-5.363,2.268-5.363,6.012,2.412,6.011,5.363,6.011S1614.363,646.079,1614.363,642.336Z" transform="translate(-229 -75.859)"/>
        <path d="M1620.485,642.336c0-4.536,3.132-8.207,7.415-8.207a7.246,7.246,0,0,1,5.867,2.879v-8.494h2.735v21.6h-2.376l-.107-2.808a7.269,7.269,0,0,1-6.119,3.24C1623.617,650.543,1620.485,646.871,1620.485,642.336Zm13.462,0c0-3.744-2.412-6.012-5.363-6.012s-5.363,2.268-5.363,6.012,2.412,6.011,5.363,6.011S1633.947,646.079,1633.947,642.336Z" transform="translate(-229 -75.859)"/>
        <path d="M1483.076,681.514h13.066v2.411h-10.187v6.587h8.387v2.412h-8.387V700.7h10.187v2.411h-13.066Z" transform="translate(-229 -75.859)"/>
        <path d="M1499.96,687.561h2.376l.18,2.987a7.261,7.261,0,0,1,6.047-3.419c4.14,0,5.615,2.879,5.615,6.73v9.251h-2.735v-9c0-3.491-1.368-4.643-3.636-4.643-2.231,0-5.111,1.943-5.111,4.463v9.179h-2.735Z" transform="translate(-229 -75.859)"/>
        <path d="M1515.907,687.561h2.808l5.039,11.662,5-11.662h2.664l-6.84,15.586h-1.836Z" transform="translate(-229 -75.859)"/>
        <path d="M1532.5,695.228c0-5,3.708-8.1,7.523-8.1,3.888,0,6.623,2.52,6.623,6.047a9.9,9.9,0,0,1-.216,1.764H1535.2c-.217,2.735,1.08,6.371,6.047,6.371a8.08,8.08,0,0,0,5.111-2.016v2.412a9.976,9.976,0,0,1-6.047,1.836C1535.742,703.543,1532.5,700.051,1532.5,695.228Zm11.519-2.2c.324-2.088-1.332-3.743-3.887-3.743a4.467,4.467,0,0,0-4.68,3.743Z" transform="translate(-229 -75.859)"/>
        <path d="M1550.432,681.514h2.734v21.6h-2.734Z" transform="translate(-229 -75.859)"/>
        <path d="M1556.551,695.336a8.478,8.478,0,1,1,8.5,8.351A8.255,8.255,0,0,1,1556.551,695.336Zm14.219,0c0-3.385-2.2-6.156-5.724-6.156-3.563,0-5.759,2.771-5.759,6.156,0,3.419,2.23,6.154,5.759,6.154S1570.77,698.755,1570.77,695.336Z" transform="translate(-229 -75.859)"/>
        <path d="M1576.891,687.561h2.375l.108,2.808a7.268,7.268,0,0,1,6.119-3.239c4.284,0,7.415,3.671,7.415,8.207s-3.131,8.207-7.415,8.207a7.249,7.249,0,0,1-5.867-2.881v9.467h-2.735Zm13.282,7.775c0-3.744-2.411-6.012-5.363-6.012s-5.363,2.268-5.363,6.012,2.411,6.011,5.363,6.011S1590.173,699.079,1590.173,695.336Z" transform="translate(-229 -75.859)"/>
        <path d="M1595.609,695.228c0-5,3.708-8.1,7.523-8.1,3.888,0,6.623,2.52,6.623,6.047a9.811,9.811,0,0,1-.216,1.764h-11.23c-.216,2.735,1.08,6.371,6.048,6.371a8.082,8.082,0,0,0,5.111-2.016v2.412a9.979,9.979,0,0,1-6.048,1.836C1598.85,703.543,1595.609,700.051,1595.609,695.228Zm11.52-2.2c.324-2.088-1.332-3.743-3.888-3.743a4.467,4.467,0,0,0-4.68,3.743Z" transform="translate(-229 -75.859)"/>
        <path d="M1481.961,753.951l.647-2.664a8.8,8.8,0,0,0,6.552,2.951c2.555,0,4.535-1.439,4.535-3.779,0-2.2-1.08-3.42-5.111-4.5-4.068-1.079-6.012-3.275-6.012-6.3,0-3.06,2.52-5.615,6.947-5.615a9.7,9.7,0,0,1,5.867,1.98l-.648,2.268a9.623,9.623,0,0,0-5.219-1.908c-2.7,0-4.248,1.26-4.248,3.275,0,1.548.973,2.844,4.355,3.744,4.645,1.224,6.768,3.239,6.768,6.8,0,4.211-3.527,6.371-7.234,6.371A10.118,10.118,0,0,1,1481.961,753.951Z" transform="translate(-229 -75.859)"/>
        <path d="M1498.772,748.336a8.478,8.478,0,1,1,8.5,8.351A8.256,8.256,0,0,1,1498.772,748.336Zm14.218,0c0-3.385-2.2-6.156-5.723-6.156-3.564,0-5.76,2.771-5.76,6.156,0,3.419,2.232,6.154,5.76,6.154S1512.99,751.755,1512.99,748.336Z" transform="translate(-229 -75.859)"/>
        <path d="M1518.248,748.336a7.816,7.816,0,0,1,8.1-8.207,8.749,8.749,0,0,1,5.436,1.583V744.2a7.478,7.478,0,0,0-5.184-1.836c-3.348,0-5.615,2.557-5.615,5.977,0,3.49,2.268,5.975,5.615,5.975a7.473,7.473,0,0,0,5.184-1.836v2.484a8.756,8.756,0,0,1-5.436,1.584A7.816,7.816,0,0,1,1518.248,748.336Z" transform="translate(-229 -75.859)"/>
        <path d="M1535.313,734.514h2.734V737.5h-2.734Zm0,6.047h2.734v15.55h-2.734Z" transform="translate(-229 -75.859)"/>
        <path d="M1541.611,748.336c0-4.536,3.132-8.207,7.416-8.207a7.27,7.27,0,0,1,6.119,3.239l.107-2.808h2.375v15.55h-2.375l-.107-2.808a7.271,7.271,0,0,1-6.119,3.24C1544.743,756.543,1541.611,752.871,1541.611,748.336Zm13.463,0c0-3.744-2.412-6.012-5.363-6.012s-5.363,2.268-5.363,6.012,2.411,6.011,5.363,6.011S1555.074,752.079,1555.074,748.336Z" transform="translate(-229 -75.859)"/>
        <path d="M1562.1,734.514h2.734v21.6H1562.1Z" transform="translate(-229 -75.859)"/>
        <path d="M1576.278,734.514h2.808l8.352,17.926,8.351-17.926h2.663v21.6h-2.771V741.389c0-.541.072-1.764.072-1.8-.072.108-.54,1.3-.756,1.8l-6.73,14.722h-1.944l-6.731-14.722c-.252-.541-.72-1.692-.756-1.8,0,.037.072,1.26.072,1.8V756.11h-2.628Z" transform="translate(-229 -75.859)"/>
        <path d="M1602.09,748.228c0-5,3.707-8.1,7.523-8.1,3.887,0,6.623,2.52,6.623,6.047a9.726,9.726,0,0,1-.217,1.764h-11.23c-.215,2.735,1.08,6.371,6.048,6.371a8.082,8.082,0,0,0,5.111-2.016v2.412a9.977,9.977,0,0,1-6.048,1.836C1605.33,756.543,1602.09,753.051,1602.09,748.228Zm11.519-2.2c.324-2.088-1.331-3.743-3.888-3.743a4.468,4.468,0,0,0-4.68,3.743Z" transform="translate(-229 -75.859)"/>
        <path d="M1619.118,748.336c0-4.536,3.132-8.207,7.415-8.207a7.246,7.246,0,0,1,5.867,2.879v-8.494h2.735v21.6h-2.376l-.107-2.808a7.269,7.269,0,0,1-6.119,3.24C1622.25,756.543,1619.118,752.871,1619.118,748.336Zm13.462,0c0-3.744-2.412-6.012-5.363-6.012s-5.363,2.268-5.363,6.012,2.412,6.011,5.363,6.011S1632.58,752.079,1632.58,748.336Z" transform="translate(-229 -75.859)"/>
        <path d="M1639.6,734.514h2.735V737.5H1639.6Zm0,6.047h2.735v15.55H1639.6Z" transform="translate(-229 -75.859)"/>
        <path d="M1645.9,748.336c0-4.536,3.132-8.207,7.415-8.207a7.268,7.268,0,0,1,6.119,3.239l.107-2.808h2.376v15.55h-2.376l-.107-2.808a7.269,7.269,0,0,1-6.119,3.24C1649.033,756.543,1645.9,752.871,1645.9,748.336Zm13.462,0c0-3.744-2.412-6.012-5.363-6.012s-5.363,2.268-5.363,6.012,2.412,6.011,5.363,6.011S1659.363,752.079,1659.363,748.336Z" transform="translate(-229 -75.859)"/>
        <path d="M1673.368,734.514h2.88v9h11.914v-9h2.88v21.6h-2.88V745.924h-11.914V756.11h-2.88Z" transform="translate(-229 -75.859)"/>
        <path d="M1694.68,748.228c0-5,3.707-8.1,7.523-8.1,3.887,0,6.623,2.52,6.623,6.047a9.726,9.726,0,0,1-.217,1.764h-11.23c-.215,2.735,1.08,6.371,6.048,6.371a8.082,8.082,0,0,0,5.111-2.016v2.412a9.977,9.977,0,0,1-6.048,1.836C1697.92,756.543,1694.68,753.051,1694.68,748.228Zm11.519-2.2c.324-2.088-1.331-3.743-3.888-3.743a4.468,4.468,0,0,0-4.68,3.743Z" transform="translate(-229 -75.859)"/>
        <path d="M1711.708,748.336c0-4.536,3.132-8.207,7.415-8.207a7.268,7.268,0,0,1,6.119,3.239l.107-2.808h2.376v15.55h-2.376l-.107-2.808a7.269,7.269,0,0,1-6.119,3.24C1714.84,756.543,1711.708,752.871,1711.708,748.336Zm13.462,0c0-3.744-2.412-6.012-5.363-6.012s-5.363,2.268-5.363,6.012,2.412,6.011,5.363,6.011S1725.17,752.079,1725.17,748.336Z" transform="translate(-229 -75.859)"/>
        <path d="M1731.291,748.336c0-4.536,3.132-8.207,7.416-8.207a7.249,7.249,0,0,1,5.867,2.879v-8.494h2.734v21.6h-2.375l-.107-2.808a7.271,7.271,0,0,1-6.119,3.24C1734.423,756.543,1731.291,752.871,1731.291,748.336Zm13.463,0c0-3.744-2.412-6.012-5.363-6.012s-5.363,2.268-5.363,6.012,2.411,6.011,5.363,6.011S1744.754,752.079,1744.754,748.336Z" transform="translate(-229 -75.859)"/>
        <path d="M1750.91,748.228c0-5,3.708-8.1,7.523-8.1,3.888,0,6.623,2.52,6.623,6.047a9.811,9.811,0,0,1-.216,1.764h-11.23c-.216,2.735,1.08,6.371,6.048,6.371a8.082,8.082,0,0,0,5.111-2.016v2.412a9.979,9.979,0,0,1-6.048,1.836C1754.15,756.543,1750.91,753.051,1750.91,748.228Zm11.52-2.2c.324-2.088-1.332-3.743-3.888-3.743a4.467,4.467,0,0,0-4.68,3.743Z" transform="translate(-229 -75.859)"/>
        <path d="M1768.839,740.561h2.376l.18,2.987a6.992,6.992,0,0,1,6.047-3.419v2.951c-2.951-.54-5.867,1.152-5.867,3.779v9.251h-2.735Z" transform="translate(-229 -75.859)"/>
        <path d="M1779.1,754.959l.541-2.16a10.555,10.555,0,0,0,5.291,1.619c1.943,0,3.455-.684,3.455-2.411,0-1.368-1.4-2.124-3.959-2.771-3.312-.828-4.824-2.592-4.824-4.607,0-2.448,1.872-4.536,5.688-4.536a10.784,10.784,0,0,1,4.824,1.3l-.541,2.088a8.2,8.2,0,0,0-4.283-1.26c-2.123,0-3.168.791-3.168,2.051,0,1.332,1.3,2.124,3.348,2.628,3.564.864,5.436,2.483,5.436,4.536,0,3.275-2.483,5.146-6.047,5.146A11.256,11.256,0,0,1,1779.1,754.959Z" transform="translate(-229 -75.859)"/>
        <path d="M1482.032,798.312c0-6.983,5.255-11.267,11.483-11.267a13.182,13.182,0,0,1,7.486,2.268V792.3a10.774,10.774,0,0,0-7.486-2.844c-4.968,0-8.5,3.455-8.5,8.854,0,5.363,3.528,8.854,8.5,8.854a10.774,10.774,0,0,0,7.486-2.844v2.988a13.182,13.182,0,0,1-7.486,2.268C1487.287,809.578,1482.032,805.295,1482.032,798.312Z" transform="translate(-229 -75.859)"/>
        <path d="M1504.6,802.811v-9.25h2.736v9c0,3.492,1.367,4.645,3.635,4.645,2.232,0,5.111-1.944,5.111-4.464v-9.179h2.736v15.55h-2.376l-.18-2.987a7.314,7.314,0,0,1-6.048,3.42C1506.08,809.543,1504.6,806.662,1504.6,802.811Z" transform="translate(-229 -75.859)"/>
        <path d="M1522.207,807.959l.541-2.16a10.555,10.555,0,0,0,5.291,1.619c1.943,0,3.455-.684,3.455-2.411,0-1.368-1.4-2.124-3.959-2.771-3.312-.828-4.824-2.592-4.824-4.607,0-2.448,1.872-4.536,5.688-4.536a10.784,10.784,0,0,1,4.824,1.3l-.541,2.088a8.2,8.2,0,0,0-4.283-1.26c-2.123,0-3.168.791-3.168,2.051,0,1.332,1.3,2.124,3.348,2.628,3.564.864,5.436,2.483,5.436,4.536,0,3.275-2.483,5.146-6.047,5.146A11.256,11.256,0,0,1,1522.207,807.959Z" transform="translate(-229 -75.859)"/>
        <path d="M1539.307,795.432h-3.492v-1.871h3.492v-4.248h2.736v4.248h3.527v1.871h-3.527V809.11h-2.736Z" transform="translate(-229 -75.859)"/>
        <path d="M1547.334,801.336a8.479,8.479,0,1,1,8.5,8.351A8.256,8.256,0,0,1,1547.334,801.336Zm14.219,0c0-3.385-2.2-6.156-5.723-6.156-3.564,0-5.76,2.771-5.76,6.156,0,3.419,2.231,6.154,5.76,6.154S1561.553,804.755,1561.553,801.336Z" transform="translate(-229 -75.859)"/>
        <path d="M1567.674,793.561h2.376l.181,2.987a6.9,6.9,0,0,1,5.723-3.419c2.916,0,4.319,1.4,4.932,3.563,1.691-2.375,3.779-3.562,5.939-3.562,4.139,0,5.255,2.879,5.255,6.73v9.251h-2.735v-9.034c0-3.42-1.045-4.607-3.312-4.607-2.23,0-4.787,1.943-4.787,4.463v9.179h-2.735v-9.034c0-3.42-1.044-4.607-3.312-4.607-2.232,0-4.787,1.943-4.787,4.463v9.179h-2.736Z" transform="translate(-229 -75.859)"/>
        <path d="M1601.406,787.514h2.951l5.184,15.945c.107.359.252,1.225.288,1.332a9.632,9.632,0,0,1,.36-1.332l5.111-15.945h1.8l5.111,15.945c.145.4.36,1.332.36,1.332a10.217,10.217,0,0,1,.288-1.332l5.184-15.945h2.808l-7.451,21.6h-1.8l-5.111-14.794c-.107-.288-.324-1.08-.359-1.187-.037.071-.252.9-.361,1.188l-5.111,14.794h-1.8Z" transform="translate(-229 -75.859)"/>
        <path d="M1630.6,801.228c0-5,3.708-8.1,7.523-8.1,3.888,0,6.623,2.52,6.623,6.047a9.811,9.811,0,0,1-.216,1.764H1633.3c-.216,2.735,1.08,6.371,6.048,6.371a8.082,8.082,0,0,0,5.111-2.016v2.412a9.979,9.979,0,0,1-6.048,1.836C1633.842,809.543,1630.6,806.051,1630.6,801.228Zm11.52-2.2c.324-2.088-1.332-3.743-3.888-3.743a4.467,4.467,0,0,0-4.68,3.743Z" transform="translate(-229 -75.859)"/>
        <path d="M1651.014,806.3l-.108,2.808h-2.376v-21.6h2.736v8.494a7.245,7.245,0,0,1,5.867-2.879c4.283,0,7.414,3.671,7.414,8.207s-3.131,8.207-7.414,8.207A7.266,7.266,0,0,1,1651.014,806.3Zm10.8-4.967c0-3.744-2.412-6.012-5.363-6.012s-5.363,2.268-5.363,6.012,2.411,6.011,5.363,6.011S1661.813,805.079,1661.813,801.336Z" transform="translate(-229 -75.859)"/>
        <path d="M1667.033,807.959l.541-2.16a10.555,10.555,0,0,0,5.291,1.619c1.943,0,3.455-.684,3.455-2.411,0-1.368-1.4-2.124-3.959-2.771-3.312-.828-4.824-2.592-4.824-4.607,0-2.448,1.872-4.536,5.688-4.536a10.784,10.784,0,0,1,4.824,1.3l-.541,2.088a8.2,8.2,0,0,0-4.283-1.26c-2.123,0-3.168.791-3.168,2.051,0,1.332,1.3,2.124,3.348,2.628,3.564.864,5.436,2.483,5.436,4.536,0,3.275-2.483,5.146-6.047,5.146A11.256,11.256,0,0,1,1667.033,807.959Z" transform="translate(-229 -75.859)"/>
        <path d="M1682.262,787.514H1685V790.5h-2.734Zm0,6.047H1685v15.55h-2.734Z" transform="translate(-229 -75.859)"/>
        <path d="M1691.332,795.432h-3.492v-1.871h3.492v-4.248h2.736v4.248h3.527v1.871h-3.527V809.11h-2.736Z" transform="translate(-229 -75.859)"/>
        <path d="M1699.576,801.228c0-5,3.707-8.1,7.523-8.1,3.887,0,6.623,2.52,6.623,6.047a9.813,9.813,0,0,1-.217,1.764h-11.23c-.216,2.735,1.08,6.371,6.047,6.371a8.08,8.08,0,0,0,5.111-2.016v2.412a9.974,9.974,0,0,1-6.047,1.836C1702.815,809.543,1699.576,806.051,1699.576,801.228Zm11.518-2.2c.324-2.088-1.331-3.743-3.887-3.743a4.468,4.468,0,0,0-4.68,3.743Z" transform="translate(-229 -75.859)"/>
        <path d="M1488.728,842.925h-7.667v-2.411h18.214v2.411h-7.667V862.11h-2.88Z" transform="translate(-229 -75.859)"/>
        <path d="M1497.908,852.1h7.271v2.016h-7.271Z" transform="translate(-229 -75.859)"/>
        <path d="M1507.916,859.951l.648-2.664a8.8,8.8,0,0,0,6.551,2.951c2.557,0,4.535-1.439,4.535-3.779,0-2.2-1.079-3.42-5.111-4.5-4.066-1.079-6.011-3.275-6.011-6.3,0-3.06,2.521-5.615,6.947-5.615a9.708,9.708,0,0,1,5.867,1.98l-.647,2.268a9.629,9.629,0,0,0-5.22-1.908c-2.7,0-4.247,1.26-4.247,3.275,0,1.548.972,2.844,4.355,3.744,4.643,1.224,6.767,3.239,6.767,6.8,0,4.211-3.527,6.371-7.235,6.371A10.121,10.121,0,0,1,1507.916,859.951Z" transform="translate(-229 -75.859)"/>
        <path d="M1525.809,840.514h2.735v8.711a7.531,7.531,0,0,1,5.867-3.1c4.14,0,5.615,2.879,5.615,6.73v9.251h-2.735v-9c0-3.491-1.367-4.643-3.636-4.643-2.231,0-5.111,1.943-5.111,4.463v9.179h-2.735Z" transform="translate(-229 -75.859)"/>
        <path d="M1544.456,840.514h2.735V843.5h-2.735Zm0,6.047h2.735v15.55h-2.735Z" transform="translate(-229 -75.859)"/>
        <path d="M1551.656,846.561h2.375l.18,2.987a6.992,6.992,0,0,1,6.047-3.419v2.951c-2.951-.54-5.867,1.152-5.867,3.779v9.251h-2.734Z" transform="translate(-229 -75.859)"/>
        <path d="M1565.586,848.432h-3.492v-1.871h3.492v-4.248h2.736v4.248h3.527v1.871h-3.527V862.11h-2.736Z" transform="translate(-229 -75.859)"/>
        <path d="M1581.678,840.514h6.7c8.387,0,12.022,4.859,12.022,10.8s-3.636,10.8-12.022,10.8h-6.7Zm6.731,19.077c7.019,0,9-3.96,9-8.279s-1.98-8.278-9-8.278h-3.852v16.558Z" transform="translate(-229 -75.859)"/>
        <path d="M1602.988,854.228c0-5,3.708-8.1,7.523-8.1,3.888,0,6.623,2.52,6.623,6.047a9.811,9.811,0,0,1-.216,1.764h-11.23c-.216,2.735,1.08,6.371,6.048,6.371a8.082,8.082,0,0,0,5.111-2.016v2.412a9.979,9.979,0,0,1-6.048,1.836C1606.229,862.543,1602.988,859.051,1602.988,854.228Zm11.52-2.2c.324-2.088-1.332-3.743-3.888-3.743a4.467,4.467,0,0,0-4.68,3.743Z" transform="translate(-229 -75.859)"/>
        <path d="M1619.838,860.959l.539-2.16a10.569,10.569,0,0,0,5.291,1.619c1.944,0,3.456-.684,3.456-2.411,0-1.368-1.4-2.124-3.96-2.771-3.311-.828-4.822-2.592-4.822-4.607,0-2.448,1.871-4.536,5.688-4.536a10.776,10.776,0,0,1,4.822,1.3l-.539,2.088a8.213,8.213,0,0,0-4.283-1.26c-2.125,0-3.168.791-3.168,2.051,0,1.332,1.295,2.124,3.348,2.628,3.563.864,5.436,2.483,5.436,4.536,0,3.275-2.484,5.146-6.048,5.146A11.25,11.25,0,0,1,1619.838,860.959Z" transform="translate(-229 -75.859)"/>
        <path d="M1635.064,840.514h2.736V843.5h-2.736Zm0,6.047h2.736v15.55h-2.736Z" transform="translate(-229 -75.859)"/>
        <path d="M1642.732,867.654v-2.448a11.371,11.371,0,0,0,6.73,2.016c2.7,0,5.184-1.62,5.184-6.191v-1.368a7.248,7.248,0,0,1-5.867,2.881c-4.283,0-7.415-3.672-7.415-8.207s3.132-8.207,7.415-8.207a7.268,7.268,0,0,1,6.119,3.239l.107-2.808h2.376v14.182c0,7.2-4.5,8.711-8.243,8.711A13.3,13.3,0,0,1,1642.732,867.654Zm12.094-13.318c0-3.744-2.412-6.012-5.363-6.012s-5.363,2.268-5.363,6.012,2.412,6.011,5.363,6.011S1654.826,858.079,1654.826,854.336Z" transform="translate(-229 -75.859)"/>
        <path d="M1661.848,846.561h2.376l.181,2.987a7.259,7.259,0,0,1,6.047-3.419c4.139,0,5.615,2.879,5.615,6.73v9.251h-2.736v-9c0-3.491-1.367-4.643-3.635-4.643-2.232,0-5.111,1.943-5.111,4.463v9.179h-2.736Z" transform="translate(-229 -75.859)"/>
      </g>
      <g>
        <path d="M419.834,333.936c0,.784-.536,1.979-1.526,1.938a9.463,9.463,0,0,0-4.083-1.031c-2.186,0-4.413,1.072-4.413,3.712,0,2.434,1.526,3.547,5.156,5.568,4.331,2.434,5.98,4.083,5.98,7.713,0,4.661-3.918,7.383-8.62,7.383a9.682,9.682,0,0,1-5.733-1.608,1.324,1.324,0,0,1-.742-1.114,3.827,3.827,0,0,1,.66-1.938,10.689,10.689,0,0,0,5.857,1.938c2.928,0,4.908-1.485,4.908-4s-1.485-3.671-5.486-5.9c-4.867-2.681-5.485-5.156-5.485-7.548,0-2.557,1.773-6.847,8.167-6.847A8.944,8.944,0,0,1,419.834,333.936Z" transform="translate(-229 -75.859)"/>
        <path d="M434.931,355.63a2.231,2.231,0,0,1-.7,2.351,6.455,6.455,0,0,1-3.877,1.114c-3.629,0-5.114-2.31-5.114-5.444V343.009c-1.4,0-1.979-.454-1.979-.866.412-.866,3.011-3.217,3.588-3.753a3.756,3.756,0,0,1,2.1-1.031c-.083,1.32-.165,2.351-.165,3.217h6.558c-.413,2.063-1.279,2.227-2.021,2.269a39.04,39.04,0,0,1-4.578.124c-.165,4.207-.165,8.662,0,10.394.206,2.475,1.567,3.094,2.97,3.094a6.1,6.1,0,0,0,3.093-.866Z" transform="translate(-229 -75.859)"/>
        <path d="M453.037,356.538c.083,1.691-.949,2.557-2.64,2.557a2.882,2.882,0,0,1-2.887-2.6,7.329,7.329,0,0,1-5.279,2.6,4.658,4.658,0,0,1-4.784-4.661c0-4.455,5.774-5.651,8-6.146.742-.165,1.526-.33,2.062-.413v-1.237a3.456,3.456,0,0,0-3.547-3.794,7.77,7.77,0,0,0-4.207,1.526c-1.114.454-1.691-.495-1.773-1.526a11.1,11.1,0,0,1,6.764-2.763c4.166,0,6.187,2.969,6.187,6.888,0,1.773-.165,5.733-.124,8.249a1.279,1.279,0,0,0,1.4,1.32,5.082,5.082,0,0,0,.784-.083Zm-9.363-.124a4.328,4.328,0,0,0,3.506-1.938,2.216,2.216,0,0,0,.289-1.361V349.9c-3.34.536-6.517,1.65-6.517,3.959A2.536,2.536,0,0,0,443.674,356.414Z" transform="translate(-229 -75.859)"/>
        <path d="M455.883,341.607a3.312,3.312,0,0,1,2.227-1.526c1.237,0,1.98,1.484,1.98,4.124,1.278-2.722,3.093-4.124,4.991-4.124a2.868,2.868,0,0,1,2.1.866,4.309,4.309,0,0,1-.784,2.31.989.989,0,0,1-1.155.289,3.412,3.412,0,0,0-1.32-.206c-.907,0-2.268.825-3.134,2.846a5.5,5.5,0,0,0-.454,2.227v9.28c0,.619-.124.907-.743.99a23.968,23.968,0,0,1-2.887.165c.124-1.485.124-3.918.124-7.589V344.37c0-1.278-.207-2.145-.949-2.6Z" transform="translate(-229 -75.859)"/>
        <path d="M480.753,355.63a2.231,2.231,0,0,1-.7,2.351,6.455,6.455,0,0,1-3.877,1.114c-3.629,0-5.114-2.31-5.114-5.444V343.009c-1.4,0-1.979-.454-1.979-.866.412-.866,3.011-3.217,3.588-3.753a3.756,3.756,0,0,1,2.1-1.031c-.083,1.32-.165,2.351-.165,3.217h6.558c-.413,2.063-1.279,2.227-2.021,2.269a39.04,39.04,0,0,1-4.578.124c-.165,4.207-.165,8.662,0,10.394.206,2.475,1.567,3.094,2.97,3.094a6.1,6.1,0,0,0,3.093-.866Z" transform="translate(-229 -75.859)"/>
        <path d="M487.972,333.729a2.008,2.008,0,0,1-1.979,2.1,1.872,1.872,0,0,1-1.98-2.021,2.067,2.067,0,0,1,2.063-2.1A1.852,1.852,0,0,1,487.972,333.729Zm-.206,23.881c0,.742-.207.949-.825,1.031a19.956,19.956,0,0,1-2.763.207c.041-1.65.124-4.042.124-6.476V345.4c0-2.516-.083-3.794-.165-4.661a13.531,13.531,0,0,1,3.052-.413c.413,0,.578.207.578,2.557Z" transform="translate(-229 -75.859)"/>
        <path d="M505.542,347.628c0-3.176-1.485-4.784-3.835-4.784a6.243,6.243,0,0,0-4.661,2.516v12.291c0,.825-.165.949-.866,1.031a20.339,20.339,0,0,1-2.764.165c.083-1.485.124-3.918.124-7.589v-6.971c0-1.526-.165-2.186-.7-2.6v-.165a3.291,3.291,0,0,1,2.269-1.443c1.278,0,1.649,1.9,1.773,3.093,1.608-1.65,3.835-3.093,6.1-3.093,4.743,0,6.022,3.547,6.022,7.506v5.774c0,2.393.082,4.125.165,5.156a21.635,21.635,0,0,1-3.052.33c-.454,0-.619-.207-.619-.578Z" transform="translate(-229 -75.859)"/>
        <path d="M523.814,340.493a14.358,14.358,0,0,0,3.217.578,10.255,10.255,0,0,0,2.887-.413,2.232,2.232,0,0,1,.124.784c0,1.2-.784,1.815-2.1,1.938-.33.042-1.031.042-1.361.042a6.757,6.757,0,0,1,.742,3.011c0,4.248-3.217,6.393-6.764,6.393a6.41,6.41,0,0,1-1.732-.206c-.536.454-1.155,1.072-1.155,1.279,0,.7.577,1.237,2.392,1.32,1.9.124,3.588.206,5.073.33,3.341.289,4.785,2.269,4.785,4.7,0,4.454-4.578,7.3-9.445,7.3-5.073,0-7.754-2.557-7.754-5.4,0-1.732,1.9-3.3,3.959-4.372a3.728,3.728,0,0,1-2.557-3.217c0-.165.042-.289.33-.454a13.2,13.2,0,0,0,2.516-2.021,5.571,5.571,0,0,1-3.382-5.362c0-3.836,3.011-6.64,7.053-6.64A13.966,13.966,0,0,1,523.814,340.493Zm-2.433,24.582c3.176,0,5.444-1.526,5.444-3.795,0-1.278-.619-2.433-3.052-2.722a22.35,22.35,0,0,0-3.959-.207,3.319,3.319,0,0,0-1.691.371,3.638,3.638,0,0,0-2.186,2.929C515.937,363.879,518.659,365.075,521.381,365.075Zm-4.413-18.56c0,2.516,1.485,4.248,3.67,4.248,2.351,0,3.506-2.021,3.506-4.29,0-2.227-.99-4.331-3.588-4.331C518.535,342.143,516.968,343.834,516.968,346.515Z" transform="translate(-229 -75.859)"/>
        <path d="M555.656,356.538c.083,1.691-.949,2.557-2.64,2.557a2.882,2.882,0,0,1-2.887-2.6,7.329,7.329,0,0,1-5.279,2.6,4.658,4.658,0,0,1-4.784-4.661c0-4.455,5.774-5.651,8-6.146.742-.165,1.526-.33,2.062-.413v-1.237a3.456,3.456,0,0,0-3.547-3.794,7.77,7.77,0,0,0-4.207,1.526c-1.114.454-1.691-.495-1.773-1.526a11.1,11.1,0,0,1,6.764-2.763c4.166,0,6.187,2.969,6.187,6.888,0,1.773-.165,5.733-.124,8.249a1.279,1.279,0,0,0,1.4,1.32,5.076,5.076,0,0,0,.784-.083Zm-9.363-.124a4.328,4.328,0,0,0,3.506-1.938,2.215,2.215,0,0,0,.289-1.361V349.9c-3.341.536-6.517,1.65-6.517,3.959A2.536,2.536,0,0,0,546.293,356.414Z" transform="translate(-229 -75.859)"/>
        <path d="M569.144,355.63a2.231,2.231,0,0,1-.7,2.351,6.455,6.455,0,0,1-3.877,1.114c-3.629,0-5.114-2.31-5.114-5.444V343.009c-1.4,0-1.979-.454-1.979-.866.412-.866,3.011-3.217,3.588-3.753a3.756,3.756,0,0,1,2.1-1.031c-.083,1.32-.165,2.351-.165,3.217h6.558c-.413,2.063-1.279,2.227-2.021,2.269a39.04,39.04,0,0,1-4.578.124c-.165,4.207-.165,8.662,0,10.394.206,2.475,1.567,3.094,2.97,3.094a6.1,6.1,0,0,0,3.093-.866Z" transform="translate(-229 -75.859)"/>
      </g>
      <polygon class="cls-12" points="563 79.141 563 372.346 813.501 427.141 1064 372.346 1064 79.141 563 79.141"/>
      <polygon class="cls-13" points="1118 76.141 1118 370.188 1368.501 425.141 1619 370.188 1619 76.141 1118 76.141"/>
      <g>
        <path class="cls-10" d="M1017.179,223.187q0,6.269-3.917,9.588t-11.135,3.315h-3.535V249.9h-8.228V211.081h12.4q7.066,0,10.739,3.039T1017.179,223.187Zm-18.587,6.163h2.713a9.037,9.037,0,0,0,5.681-1.5,5.254,5.254,0,0,0,1.884-4.367,5.387,5.387,0,0,0-1.579-4.275q-1.583-1.381-4.951-1.381h-3.747Z" transform="translate(-229 -75.859)"/>
        <path class="cls-10" d="M1032.735,235V249.9h-8.227V211.081h11.309q7.911,0,11.709,2.883t3.8,8.748a10.3,10.3,0,0,1-1.884,6.088,12.457,12.457,0,0,1-5.341,4.186q8.766,13.085,11.419,16.908h-9.131L1037.119,235Zm0-6.69h2.656c2.6,0,4.527-.436,5.763-1.3a4.647,4.647,0,0,0,1.859-4.087,4.252,4.252,0,0,0-1.9-3.931,11.524,11.524,0,0,0-5.883-1.169h-2.5Z" transform="translate(-229 -75.859)"/>
        <path class="cls-10" d="M1095.629,230.441q0,9.632-4.774,14.812t-13.7,5.175q-8.926,0-13.7-5.175t-4.781-14.868q0-9.691,4.8-14.8t13.735-5.107q8.947,0,13.686,5.15T1095.629,230.441Zm-28.327,0q0,6.5,2.472,9.789t7.381,3.294q9.849,0,9.846-13.083,0-13.122-9.8-13.119-4.909,0-7.409,3.3T1067.3,230.441Z" transform="translate(-229 -75.859)"/>
      </g>
      <rect class="cls-6" x="617.094" y="228.438" width="392.085" height="1.81"/>
      <g>
        <path class="cls-10" d="M965.15,455.234v-8.162c-5.3-.168-10.6-1.683-13.631-3.7l2.272-7.909a26.535,26.535,0,0,0,13.126,3.7c5.3,0,8.919-2.609,8.919-6.647,0-3.786-2.945-6.227-9.172-8.5-8.835-3.2-14.557-7.236-14.557-15.062,0-7.236,5.049-12.79,13.547-14.3V386.4h6.9v7.825a26.9,26.9,0,0,1,11.612,2.777l-2.272,7.741a25.01,25.01,0,0,0-11.443-2.861c-5.89,0-7.994,3.029-7.994,5.89,0,3.45,3.029,5.385,10.181,8.246,9.424,3.534,13.631,8.078,13.631,15.567,0,7.152-4.965,13.463-14.22,14.977v8.667Z" transform="translate(-229 -75.859)"/>
        <path class="cls-10" d="M999.393,440.593a27.435,27.435,0,0,0,5.721-.168,20.657,20.657,0,0,0,11.107-4.207A20.222,20.222,0,0,0,1023.2,424.1l-.168-.084c-2.776,3.114-6.647,4.881-11.948,4.881-9.508,0-16.577-6.9-16.577-17a19.378,19.378,0,0,1,19.774-19.521c12.705,0,19.521,10.013,19.521,23.308,0,11.7-3.87,20.026-9.508,25.411-4.8,4.459-11.359,6.983-18.68,7.488a40.766,40.766,0,0,1-6.226.168Zm5.385-29.282c.084,5.637,3.281,10.013,9,10.013a9.966,9.966,0,0,0,8.835-4.544,6.2,6.2,0,0,0,.589-2.945c.084-7.405-2.693-13.8-9.424-13.8C1008.564,400.036,1004.778,404.664,1004.778,411.311Z" transform="translate(-229 -75.859)"/>
        <path class="cls-10" d="M1075.033,401.887H1054l-1.6,10.939a27.567,27.567,0,0,1,3.955-.252,24.386,24.386,0,0,1,13.295,3.534c4.123,2.609,7.152,7.237,7.152,13.884,0,10.434-8.667,18.932-22.13,18.932a31.471,31.471,0,0,1-14.472-3.2l2.1-7.825a27.686,27.686,0,0,0,12.032,2.861c6.058,0,11.865-3.45,11.865-10.013,0-6.227-4.628-10.35-15.567-10.35a47.6,47.6,0,0,0-7.489.5l3.618-27.6h28.272Z" transform="translate(-229 -75.859)"/>
        <path class="cls-10" d="M1124,420.314c0,17.586-6.9,28.608-19.942,28.608-12.621,0-19.353-11.444-19.437-28.1,0-17,7.236-28.441,20.026-28.441C1117.858,392.379,1124,404.159,1124,420.314Zm-28.945.5c-.084,13.295,3.618,20.194,9.34,20.194,6.058,0,9.256-7.4,9.256-20.531,0-12.706-3.029-20.195-9.256-20.195C1098.841,400.288,1094.971,407.1,1095.055,420.819Z" transform="translate(-229 -75.859)"/>
      </g>
      <g>
        <path d="M971.834,333.936c0,.784-.536,1.979-1.525,1.938a9.467,9.467,0,0,0-4.084-1.031c-2.186,0-4.413,1.072-4.413,3.712,0,2.434,1.526,3.547,5.155,5.568,4.331,2.434,5.98,4.083,5.98,7.713,0,4.661-3.918,7.383-8.619,7.383a9.683,9.683,0,0,1-5.734-1.608,1.324,1.324,0,0,1-.742-1.114,3.827,3.827,0,0,1,.66-1.938,10.689,10.689,0,0,0,5.857,1.938c2.928,0,4.908-1.485,4.908-4s-1.485-3.671-5.486-5.9c-4.867-2.681-5.485-5.156-5.485-7.548,0-2.557,1.773-6.847,8.167-6.847A8.944,8.944,0,0,1,971.834,333.936Z" transform="translate(-229 -75.859)"/>
        <path d="M986.931,355.63a2.23,2.23,0,0,1-.7,2.351,6.455,6.455,0,0,1-3.877,1.114c-3.63,0-5.114-2.31-5.114-5.444V343.009c-1.4,0-1.979-.454-1.979-.866.412-.866,3.011-3.217,3.588-3.753a3.758,3.758,0,0,1,2.1-1.031c-.083,1.32-.165,2.351-.165,3.217h6.559c-.413,2.063-1.279,2.227-2.021,2.269a39.04,39.04,0,0,1-4.578.124c-.165,4.207-.165,8.662,0,10.394.206,2.475,1.567,3.094,2.97,3.094a6.1,6.1,0,0,0,3.093-.866Z" transform="translate(-229 -75.859)"/>
        <path d="M1005.037,356.538c.082,1.691-.949,2.557-2.64,2.557a2.883,2.883,0,0,1-2.888-2.6,7.327,7.327,0,0,1-5.279,2.6,4.658,4.658,0,0,1-4.783-4.661c0-4.455,5.773-5.651,8-6.146.742-.165,1.526-.33,2.062-.413v-1.237a3.456,3.456,0,0,0-3.547-3.794,7.774,7.774,0,0,0-4.207,1.526c-1.113.454-1.69-.495-1.773-1.526a11.1,11.1,0,0,1,6.765-2.763c4.165,0,6.187,2.969,6.187,6.888,0,1.773-.165,5.733-.124,8.249a1.279,1.279,0,0,0,1.4,1.32,5.1,5.1,0,0,0,.784-.083Zm-9.363-.124a4.327,4.327,0,0,0,3.506-1.938,2.212,2.212,0,0,0,.289-1.361V349.9c-3.34.536-6.517,1.65-6.517,3.959A2.536,2.536,0,0,0,995.674,356.414Z" transform="translate(-229 -75.859)"/>
        <path d="M1007.883,341.607a3.314,3.314,0,0,1,2.228-1.526c1.237,0,1.979,1.484,1.979,4.124,1.279-2.722,3.094-4.124,4.991-4.124a2.866,2.866,0,0,1,2.1.866,4.308,4.308,0,0,1-.783,2.31.989.989,0,0,1-1.154.289,3.414,3.414,0,0,0-1.32-.206c-.907,0-2.268.825-3.135,2.846a5.5,5.5,0,0,0-.453,2.227v9.28c0,.619-.124.907-.742.99a23.981,23.981,0,0,1-2.888.165c.124-1.485.124-3.918.124-7.589V344.37c0-1.278-.207-2.145-.949-2.6Z" transform="translate(-229 -75.859)"/>
        <path d="M1032.754,355.63a2.234,2.234,0,0,1-.7,2.351,6.457,6.457,0,0,1-3.877,1.114c-3.63,0-5.115-2.31-5.115-5.444V343.009c-1.4,0-1.979-.454-1.979-.866.412-.866,3.01-3.217,3.588-3.753a3.751,3.751,0,0,1,2.1-1.031c-.083,1.32-.166,2.351-.166,3.217h6.559c-.412,2.063-1.279,2.227-2.021,2.269a39.03,39.03,0,0,1-4.578.124c-.164,4.207-.164,8.662,0,10.394.207,2.475,1.568,3.094,2.971,3.094a6.1,6.1,0,0,0,3.093-.866Z" transform="translate(-229 -75.859)"/>
        <path d="M1039.973,333.729a2.009,2.009,0,0,1-1.98,2.1,1.872,1.872,0,0,1-1.979-2.021,2.067,2.067,0,0,1,2.063-2.1A1.852,1.852,0,0,1,1039.973,333.729Zm-.207,23.881c0,.742-.206.949-.824,1.031a19.985,19.985,0,0,1-2.764.207c.041-1.65.123-4.042.123-6.476V345.4c0-2.516-.082-3.794-.164-4.661a13.531,13.531,0,0,1,3.052-.413c.413,0,.577.207.577,2.557Z" transform="translate(-229 -75.859)"/>
        <path d="M1057.543,347.628c0-3.176-1.485-4.784-3.836-4.784a6.24,6.24,0,0,0-4.66,2.516v12.291c0,.825-.166.949-.867,1.031a20.329,20.329,0,0,1-2.764.165c.083-1.485.125-3.918.125-7.589v-6.971c0-1.526-.166-2.186-.7-2.6v-.165a3.29,3.29,0,0,1,2.268-1.443c1.279,0,1.65,1.9,1.773,3.093,1.609-1.65,3.836-3.093,6.1-3.093,4.743,0,6.022,3.547,6.022,7.506v5.774c0,2.393.082,4.125.164,5.156a21.627,21.627,0,0,1-3.052.33c-.454,0-.618-.207-.618-.578Z" transform="translate(-229 -75.859)"/>
        <path d="M1075.814,340.493a14.349,14.349,0,0,0,3.217.578,10.251,10.251,0,0,0,2.887-.413,2.22,2.22,0,0,1,.124.784c0,1.2-.784,1.815-2.1,1.938-.329.042-1.03.042-1.36.042a6.764,6.764,0,0,1,.742,3.011c0,4.248-3.217,6.393-6.765,6.393a6.4,6.4,0,0,1-1.731-.206c-.537.454-1.155,1.072-1.155,1.279,0,.7.577,1.237,2.392,1.32,1.9.124,3.589.206,5.073.33,3.341.289,4.784,2.269,4.784,4.7,0,4.454-4.578,7.3-9.444,7.3-5.073,0-7.755-2.557-7.755-5.4,0-1.732,1.9-3.3,3.96-4.372a3.729,3.729,0,0,1-2.558-3.217c0-.165.042-.289.33-.454a13.173,13.173,0,0,0,2.517-2.021,5.57,5.57,0,0,1-3.382-5.362c0-3.836,3.01-6.64,7.053-6.64A13.97,13.97,0,0,1,1075.814,340.493Zm-2.434,24.582c3.176,0,5.444-1.526,5.444-3.795,0-1.278-.618-2.433-3.052-2.722a22.355,22.355,0,0,0-3.96-.207,3.317,3.317,0,0,0-1.69.371,3.638,3.638,0,0,0-2.187,2.929C1067.937,363.879,1070.658,365.075,1073.381,365.075Zm-4.413-18.56c0,2.516,1.485,4.248,3.671,4.248,2.351,0,3.506-2.021,3.506-4.29,0-2.227-.99-4.331-3.589-4.331C1070.535,342.143,1068.968,343.834,1068.968,346.515Z" transform="translate(-229 -75.859)"/>
        <path d="M1107.656,356.538c.082,1.691-.949,2.557-2.641,2.557a2.882,2.882,0,0,1-2.887-2.6,7.329,7.329,0,0,1-5.279,2.6,4.658,4.658,0,0,1-4.784-4.661c0-4.455,5.774-5.651,8-6.146.742-.165,1.526-.33,2.063-.413v-1.237a3.456,3.456,0,0,0-3.547-3.794,7.769,7.769,0,0,0-4.207,1.526c-1.113.454-1.691-.495-1.773-1.526a11.1,11.1,0,0,1,6.764-2.763c4.166,0,6.188,2.969,6.188,6.888,0,1.773-.166,5.733-.125,8.249a1.28,1.28,0,0,0,1.4,1.32,5.076,5.076,0,0,0,.784-.083Zm-9.363-.124a4.329,4.329,0,0,0,3.506-1.938,2.212,2.212,0,0,0,.289-1.361V349.9c-3.341.536-6.518,1.65-6.518,3.959A2.537,2.537,0,0,0,1098.293,356.414Z" transform="translate(-229 -75.859)"/>
        <path d="M1121.144,355.63a2.23,2.23,0,0,1-.7,2.351,6.455,6.455,0,0,1-3.877,1.114c-3.63,0-5.114-2.31-5.114-5.444V343.009c-1.4,0-1.979-.454-1.979-.866.412-.866,3.011-3.217,3.588-3.753a3.758,3.758,0,0,1,2.1-1.031c-.083,1.32-.165,2.351-.165,3.217h6.559c-.413,2.063-1.279,2.227-2.021,2.269a39.04,39.04,0,0,1-4.578.124c-.165,4.207-.165,8.662,0,10.394.206,2.475,1.567,3.094,2.97,3.094a6.1,6.1,0,0,0,3.093-.866Z" transform="translate(-229 -75.859)"/>
      </g>
      <g>
        <g>
          <path class="cls-8" d="M1497.8,211.081V236.2a14.5,14.5,0,0,1-1.927,7.54,12.507,12.507,0,0,1-5.561,4.966,19.924,19.924,0,0,1-8.607,1.725q-7.48,0-11.624-3.836t-4.144-10.5V211.081h8.2v23.766q0,4.484,1.806,6.58c1.2,1.4,3.195,2.1,5.971,2.1q4.038,0,5.851-2.111c1.218-1.41,1.821-3.613,1.821-6.623V211.081Z" transform="translate(-229 -75.859)"/>
          <path class="cls-8" d="M1507.3,249.9V211.081h8.231V243.1h15.74v6.8Z" transform="translate(-229 -75.859)"/>
          <path class="cls-8" d="M1552.993,249.9h-8.224V217.931h-10.541v-6.85h29.312v6.85h-10.547Z" transform="translate(-229 -75.859)"/>
          <path class="cls-8" d="M1569.512,249.9V211.081h8.224V249.9Z" transform="translate(-229 -75.859)"/>
          <path class="cls-8" d="M1603.945,249.9l-9.343-30.449h-.241q.5,9.292.5,12.4V249.9h-7.353V211.081h11.2l9.187,29.68h.163l9.74-29.68h11.206V249.9h-7.671V231.524c0-.864.014-1.863.035-3s.149-4.14.362-9.025h-.241l-10,30.4Z" transform="translate(-229 -75.859)"/>
          <path class="cls-8" d="M1662.533,249.9l-2.812-9.241h-14.146l-2.819,9.241h-8.861l13.693-38.974h10.066L1671.4,249.9Zm-4.774-16.14q-3.9-12.559-4.4-14.2c-.326-1.1-.56-1.962-.7-2.6q-.882,3.4-5.015,16.806Z" transform="translate(-229 -75.859)"/>
          <path class="cls-8" d="M1691.264,249.9h-8.231V217.931h-10.54v-6.85H1701.8v6.85h-10.541Z" transform="translate(-229 -75.859)"/>
          <path class="cls-8" d="M1730.131,249.9h-22.355V211.081h22.355v6.744h-14.124v8.521h13.14v6.747h-13.14V243.1h14.124Z" transform="translate(-229 -75.859)"/>
        </g>
        <rect class="cls-6" x="1172.292" y="228.438" width="392.081" height="1.81"/>
        <g>
          <path class="cls-8" d="M1486.975,453.115v-8.433c-5.477-.174-10.954-1.739-14.084-3.826l2.348-8.172a27.417,27.417,0,0,0,13.562,3.826c5.477,0,9.216-2.7,9.216-6.868,0-3.912-3.043-6.434-9.476-8.781-9.129-3.3-15.041-7.477-15.041-15.562,0-7.477,5.217-13.215,14-14.779V382h7.129v8.085a27.8,27.8,0,0,1,12,2.869l-2.348,8A25.841,25.841,0,0,0,1492.452,398c-6.086,0-8.259,3.13-8.259,6.086,0,3.564,3.13,5.564,10.52,8.52,9.737,3.652,14.084,8.346,14.084,16.084,0,7.389-5.13,13.91-14.692,15.475v8.955Z" transform="translate(-229 -75.859)"/>
          <path class="cls-8" d="M1520.181,434.6a27.945,27.945,0,0,0,12.867,3.478c8.172,0,11.476-4.608,11.389-9.042,0-6.694-6.26-9.563-12.78-9.563H1526.7v-7.824h4.782c4.956,0,11.215-2.26,11.215-7.912,0-3.826-2.869-7.042-9.041-7.042a22.747,22.747,0,0,0-11.563,3.564l-2.434-7.737c3.217-2.261,9.476-4.347,16.258-4.347,11.65,0,17.648,6.434,17.648,13.824,0,5.912-3.478,10.78-10.432,13.215v.174c6.868,1.217,12.432,6.434,12.432,14.084,0,9.563-8,17.127-22,17.127-6.868,0-12.78-1.912-15.823-3.912Z" transform="translate(-229 -75.859)"/>
          <path class="cls-8" d="M1561.56,456.159a140.866,140.866,0,0,0,5.825-22.952l11.215-.87c-2.434,8.172-6.347,17.562-9.737,23.126Z" transform="translate(-229 -75.859)"/>
          <path class="cls-8" d="M1625.022,417.036c0,18.17-7.129,29.559-20.6,29.559-13.041,0-20-11.824-20.083-29.037,0-17.562,7.477-29.386,20.692-29.386C1618.676,388.172,1625.022,400.344,1625.022,417.036Zm-29.907.522c-.087,13.736,3.738,20.865,9.65,20.865,6.26,0,9.563-7.65,9.563-21.213,0-13.128-3.13-20.866-9.563-20.866C1599.028,396.345,1595.029,403.387,1595.116,417.558Z" transform="translate(-229 -75.859)"/>
          <path class="cls-8" d="M1671.617,417.036c0,18.17-7.129,29.559-20.6,29.559-13.041,0-20-11.824-20.083-29.037,0-17.562,7.477-29.386,20.692-29.386C1665.271,388.172,1671.617,400.344,1671.617,417.036Zm-29.907.522c-.087,13.736,3.738,20.865,9.65,20.865,6.26,0,9.563-7.65,9.563-21.213,0-13.128-3.13-20.866-9.563-20.866C1645.623,396.345,1641.624,403.387,1641.71,417.558Z" transform="translate(-229 -75.859)"/>
          <path class="cls-8" d="M1718.212,417.036c0,18.17-7.129,29.559-20.6,29.559-13.041,0-20-11.824-20.083-29.037,0-17.562,7.477-29.386,20.692-29.386C1711.866,388.172,1718.212,400.344,1718.212,417.036Zm-29.907.522c-.087,13.736,3.738,20.865,9.65,20.865,6.26,0,9.563-7.65,9.563-21.213,0-13.128-3.13-20.866-9.563-20.866C1692.217,396.345,1688.219,403.387,1688.305,417.558Z" transform="translate(-229 -75.859)"/>
        </g>
        <g>
          <path d="M1537.834,333.936c0,.784-.536,1.979-1.525,1.938a9.467,9.467,0,0,0-4.084-1.031c-2.186,0-4.413,1.072-4.413,3.712,0,2.434,1.526,3.547,5.155,5.568,4.331,2.434,5.98,4.083,5.98,7.713,0,4.661-3.918,7.383-8.619,7.383a9.686,9.686,0,0,1-5.734-1.608,1.325,1.325,0,0,1-.742-1.114,3.822,3.822,0,0,1,.66-1.938,10.689,10.689,0,0,0,5.857,1.938c2.928,0,4.908-1.485,4.908-4s-1.485-3.671-5.486-5.9c-4.867-2.681-5.485-5.156-5.485-7.548,0-2.557,1.773-6.847,8.167-6.847A8.944,8.944,0,0,1,1537.834,333.936Z" transform="translate(-229 -75.859)"/>
          <path d="M1552.931,355.63a2.23,2.23,0,0,1-.7,2.351,6.455,6.455,0,0,1-3.877,1.114c-3.63,0-5.114-2.31-5.114-5.444V343.009c-1.4,0-1.979-.454-1.979-.866.412-.866,3.011-3.217,3.588-3.753a3.758,3.758,0,0,1,2.1-1.031c-.083,1.32-.165,2.351-.165,3.217h6.559c-.413,2.063-1.279,2.227-2.021,2.269a39.04,39.04,0,0,1-4.578.124c-.165,4.207-.165,8.662,0,10.394.206,2.475,1.567,3.094,2.97,3.094a6.1,6.1,0,0,0,3.093-.866Z" transform="translate(-229 -75.859)"/>
          <path d="M1571.037,356.538c.082,1.691-.949,2.557-2.64,2.557a2.883,2.883,0,0,1-2.888-2.6,7.327,7.327,0,0,1-5.279,2.6,4.658,4.658,0,0,1-4.783-4.661c0-4.455,5.773-5.651,8-6.146.742-.165,1.526-.33,2.062-.413v-1.237a3.456,3.456,0,0,0-3.547-3.794,7.774,7.774,0,0,0-4.207,1.526c-1.113.454-1.69-.495-1.773-1.526a11.1,11.1,0,0,1,6.765-2.763c4.165,0,6.187,2.969,6.187,6.888,0,1.773-.165,5.733-.124,8.249a1.279,1.279,0,0,0,1.4,1.32,5.1,5.1,0,0,0,.784-.083Zm-9.363-.124a4.327,4.327,0,0,0,3.506-1.938,2.212,2.212,0,0,0,.289-1.361V349.9c-3.34.536-6.517,1.65-6.517,3.959A2.536,2.536,0,0,0,1561.674,356.414Z" transform="translate(-229 -75.859)"/>
          <path d="M1573.883,341.607a3.314,3.314,0,0,1,2.228-1.526c1.237,0,1.979,1.484,1.979,4.124,1.279-2.722,3.094-4.124,4.991-4.124a2.866,2.866,0,0,1,2.1.866,4.308,4.308,0,0,1-.783,2.31.989.989,0,0,1-1.154.289,3.414,3.414,0,0,0-1.32-.206c-.907,0-2.268.825-3.135,2.846a5.5,5.5,0,0,0-.453,2.227v9.28c0,.619-.124.907-.742.99a23.981,23.981,0,0,1-2.888.165c.124-1.485.124-3.918.124-7.589V344.37c0-1.278-.207-2.145-.949-2.6Z" transform="translate(-229 -75.859)"/>
          <path d="M1598.754,355.63a2.234,2.234,0,0,1-.7,2.351,6.457,6.457,0,0,1-3.877,1.114c-3.63,0-5.115-2.31-5.115-5.444V343.009c-1.4,0-1.979-.454-1.979-.866.412-.866,3.01-3.217,3.588-3.753a3.751,3.751,0,0,1,2.1-1.031c-.083,1.32-.166,2.351-.166,3.217h6.559c-.412,2.063-1.279,2.227-2.021,2.269a39.03,39.03,0,0,1-4.578.124c-.164,4.207-.164,8.662,0,10.394.207,2.475,1.568,3.094,2.971,3.094a6.1,6.1,0,0,0,3.093-.866Z" transform="translate(-229 -75.859)"/>
          <path d="M1605.973,333.729a2.009,2.009,0,0,1-1.98,2.1,1.872,1.872,0,0,1-1.979-2.021,2.067,2.067,0,0,1,2.063-2.1A1.852,1.852,0,0,1,1605.973,333.729Zm-.207,23.881c0,.742-.206.949-.824,1.031a19.985,19.985,0,0,1-2.764.207c.041-1.65.123-4.042.123-6.476V345.4c0-2.516-.082-3.794-.164-4.661a13.531,13.531,0,0,1,3.052-.413c.413,0,.577.207.577,2.557Z" transform="translate(-229 -75.859)"/>
          <path d="M1623.543,347.628c0-3.176-1.485-4.784-3.836-4.784a6.24,6.24,0,0,0-4.66,2.516v12.291c0,.825-.166.949-.867,1.031a20.329,20.329,0,0,1-2.764.165c.083-1.485.125-3.918.125-7.589v-6.971c0-1.526-.166-2.186-.7-2.6v-.165a3.29,3.29,0,0,1,2.268-1.443c1.279,0,1.65,1.9,1.773,3.093,1.609-1.65,3.836-3.093,6.1-3.093,4.743,0,6.022,3.547,6.022,7.506v5.774c0,2.393.082,4.125.164,5.156a21.627,21.627,0,0,1-3.052.33c-.454,0-.618-.207-.618-.578Z" transform="translate(-229 -75.859)"/>
          <path d="M1641.814,340.493a14.349,14.349,0,0,0,3.217.578,10.251,10.251,0,0,0,2.887-.413,2.22,2.22,0,0,1,.124.784c0,1.2-.784,1.815-2.1,1.938-.329.042-1.03.042-1.36.042a6.764,6.764,0,0,1,.742,3.011c0,4.248-3.217,6.393-6.765,6.393a6.4,6.4,0,0,1-1.731-.206c-.537.454-1.155,1.072-1.155,1.279,0,.7.577,1.237,2.392,1.32,1.9.124,3.589.206,5.073.33,3.341.289,4.784,2.269,4.784,4.7,0,4.454-4.578,7.3-9.444,7.3-5.073,0-7.755-2.557-7.755-5.4,0-1.732,1.9-3.3,3.96-4.372a3.729,3.729,0,0,1-2.558-3.217c0-.165.042-.289.33-.454a13.173,13.173,0,0,0,2.517-2.021,5.57,5.57,0,0,1-3.382-5.362c0-3.836,3.01-6.64,7.053-6.64A13.97,13.97,0,0,1,1641.814,340.493Zm-2.434,24.582c3.176,0,5.444-1.526,5.444-3.795,0-1.278-.618-2.433-3.052-2.722a22.355,22.355,0,0,0-3.96-.207,3.317,3.317,0,0,0-1.69.371,3.638,3.638,0,0,0-2.187,2.929C1633.937,363.879,1636.658,365.075,1639.381,365.075Zm-4.413-18.56c0,2.516,1.485,4.248,3.671,4.248,2.351,0,3.506-2.021,3.506-4.29,0-2.227-.99-4.331-3.589-4.331C1636.535,342.143,1634.968,343.834,1634.968,346.515Z" transform="translate(-229 -75.859)"/>
          <path d="M1673.656,356.538c.082,1.691-.949,2.557-2.641,2.557a2.882,2.882,0,0,1-2.887-2.6,7.329,7.329,0,0,1-5.279,2.6,4.658,4.658,0,0,1-4.784-4.661c0-4.455,5.774-5.651,8-6.146.742-.165,1.526-.33,2.063-.413v-1.237a3.456,3.456,0,0,0-3.547-3.794,7.769,7.769,0,0,0-4.207,1.526c-1.113.454-1.691-.495-1.773-1.526a11.1,11.1,0,0,1,6.764-2.763c4.166,0,6.188,2.969,6.188,6.888,0,1.773-.166,5.733-.125,8.249a1.28,1.28,0,0,0,1.4,1.32,5.076,5.076,0,0,0,.784-.083Zm-9.363-.124a4.329,4.329,0,0,0,3.506-1.938,2.212,2.212,0,0,0,.289-1.361V349.9c-3.341.536-6.518,1.65-6.518,3.959A2.537,2.537,0,0,0,1664.293,356.414Z" transform="translate(-229 -75.859)"/>
          <path d="M1687.144,355.63a2.23,2.23,0,0,1-.7,2.351,6.455,6.455,0,0,1-3.877,1.114c-3.63,0-5.114-2.31-5.114-5.444V343.009c-1.4,0-1.979-.454-1.979-.866.412-.866,3.011-3.217,3.588-3.753a3.758,3.758,0,0,1,2.1-1.031c-.083,1.32-.165,2.351-.165,3.217h6.559c-.413,2.063-1.279,2.227-2.021,2.269a39.04,39.04,0,0,1-4.578.124c-.165,4.207-.165,8.662,0,10.394.206,2.475,1.567,3.094,2.97,3.094a6.1,6.1,0,0,0,3.093-.866Z" transform="translate(-229 -75.859)"/>
        </g>
      </g>
    </g>
  </g>
</svg>
